<svg width="56" height="56" viewBox="0 0 56 56" fill="none" xmlns="http://www.w3.org/2000/svg">
<path d="M27.3483 4.10591C26.1568 2.95681 24.5358 2.25 22.75 2.25H21.875C21.1149 2.25 20.5 2.86487 20.5 3.625C20.5 7.11536 23.1999 9.97577 26.625 10.2314V12V12.5H27.125H27.125H27.125H27.1251H27.1251H27.1251H27.1252H27.1252H27.1253H27.1253H27.1254H27.1255H27.1256H27.1257H27.1258H27.1259H27.126H27.1261H27.1262H27.1263H27.1265H27.1266H27.1268H27.1269H27.1271H27.1273H27.1274H27.1276H27.1278H27.128H27.1282H27.1284H27.1287H27.1289H27.1291H27.1293H27.1296H27.1298H27.1301H27.1304H27.1306H27.1309H27.1312H27.1315H27.1318H27.1321H27.1324H27.1327H27.133H27.1333H27.1337H27.134H27.1344H27.1347H27.1351H27.1355H27.1358H27.1362H27.1366H27.137H27.1374H27.1378H27.1382H27.1386H27.1391H27.1395H27.1399H27.1404H27.1408H27.1413H27.1418H27.1422H27.1427H27.1432H27.1437H27.1442H27.1447H27.1452H27.1457H27.1462H27.1468H27.1473H27.1478H27.1484H27.1489H27.1495H27.1501H27.1506H27.1512H27.1518H27.1524H27.153H27.1536H27.1542H27.1548H27.1554H27.1561H27.1567H27.1574H27.158H27.1587H27.1593H27.16H27.1607H27.1613H27.162H27.1627H27.1634H27.1641H27.1648H27.1656H27.1663H27.167H27.1677H27.1685H27.1692H27.17H27.1708H27.1715H27.1723H27.1731H27.1739H27.1747H27.1754H27.1763H27.1771H27.1779H27.1787H27.1795H27.1804H27.1812H27.1821H27.1829H27.1838H27.1846H27.1855H27.1864H27.1873H27.1882H27.1891H27.19H27.1909H27.1918H27.1927H27.1936H27.1946H27.1955H27.1965H27.1974H27.1984H27.1993H27.2003H27.2013H27.2022H27.2032H27.2042H27.2052H27.2062H27.2072H27.2083H27.2093H27.2103H27.2114H27.2124H27.2134H27.2145H27.2156H27.2166H27.2177H27.2188H27.2198H27.2209H27.222H27.2231H27.2242H27.2254H27.2265H27.2276H27.2287H27.2299H27.231H27.2322H27.2333H27.2345H27.2356H27.2368H27.238H27.2392H27.2404H27.2416H27.2428H27.244H27.2452H27.2464H27.2476H27.2488H27.2501H27.2513H27.2526H27.2538H27.2551H27.2564H27.2576H27.2589H27.2602H27.2615H27.2628H27.2641H27.2654H27.2667H27.268H27.2693H27.2707H27.272H27.2733H27.2747H27.276H27.2774H27.2787H27.2801H27.2815H27.2829H27.2843H27.2856H27.287H27.2884H27.2899H27.2913H27.2927H27.2941H27.2955H27.297H27.2984H27.2999H27.3013H27.3028H27.3043H27.3057H27.3072H27.3087H27.3102H27.3117H27.3132H27.3147H27.3162H27.3177H27.3192H27.3207H27.3223H27.3238H27.3254H27.3269H27.3285H27.33H27.3316H27.3332H27.3347H27.3363H27.3379H27.3395H27.3411H27.3427H27.3443H27.3459H27.3475H27.3492H27.3508H27.3524H27.3541H27.3557H27.3574H27.359H27.3607H27.3624H27.3641H27.3657H27.3674H27.3691H27.3708H27.3725H27.3742H27.3759H27.3777H27.3794H27.3811H27.3828H27.3846H27.3863H27.3881H27.3898H27.3916H27.3934H27.3951H27.3969H27.3987H27.4005H27.4023H27.4041H27.4059H27.4077H27.4095H27.4113H27.4132H27.415H27.4168H27.4187H27.4205H27.4224H27.4242H27.4261H27.428H27.4299H27.4317H27.4336H27.4355H27.4374H27.4393H27.4412H27.4431H27.445H27.447H27.4489H27.4508H27.4528H27.4547H27.4566H27.4586H27.4606H27.4625H27.4645H27.4665H27.4684H27.4704H27.4724H27.4744H27.4764H27.4784H27.4804H27.4824H27.4845H27.4865H27.4885H27.4905H27.4926H27.4946H27.4967H27.4987H27.5008H27.5029H27.5049H27.507H27.5091H27.5112H27.5133H27.5154H27.5175H27.5196H27.5217H27.5238H27.5259H27.5281H27.5302H27.5323H27.5345H27.5366H27.5388H27.5409H27.5431H27.5452H27.5474H27.5496H27.5518H27.554H27.5562H27.5584H27.5606H27.5628H27.565H27.5672H27.5694H27.5716H27.5739H27.5761H27.5784H27.5806H27.5828H27.5851H27.5874H27.5896H27.5919H27.5942H27.5965H27.5987H27.601H27.6033H27.6056H27.6079H27.6102H27.6126H27.6149H27.6172H27.6195H27.6219H27.6242H27.6266H27.6289H27.6313H27.6336H27.636H27.6383H27.6407H27.6431H27.6455H27.6479H27.6503H27.6527H27.6551H27.6575H27.6599H27.6623H27.6647H27.6671H27.6696H27.672H27.6744H27.6769H27.6793H27.6818H27.6843H27.6867H27.6892H27.6917H27.6941H27.6966H27.6991H27.7016H27.7041H27.7066H27.7091H27.7116H27.7141H27.7166H27.7192H27.7217H27.7242H27.7268H27.7293H27.7319H27.7344H27.737H27.7395H27.7421H27.7447H27.7472H27.7498H27.7524H27.755H27.7576H27.7602H27.7628H27.7654H27.768H27.7706H27.7732H27.7759H27.7785H27.7811H27.7838H27.7864H27.7891H27.7917H27.7944H27.797H27.7997H27.8024H27.805H27.8077H27.8104H27.8131H27.8158H27.8185H27.8212H27.8239H27.8266H27.8293H27.832H27.8348H27.8375H27.8402H27.843H27.8457H27.8485H27.8512H27.854H27.8567H27.8595H27.8622H27.865H27.8678H27.8706H27.8734H27.8762H27.8789H27.8817H27.8846H27.8874H27.8902H27.893H27.8958H27.8986H27.9015H27.9043H27.9071H27.9099H27.9128H27.9155H27.9183H27.9211H27.9239H27.9266H27.9294H27.9321H27.9348H27.9375H27.9402H27.9429H27.9456H27.9482H27.9509H27.9535H27.9562H27.9588H27.9614H27.964H27.9666H27.9692H27.9718H27.9743H27.9769H27.9794H27.9819H27.9845H27.987H27.9895H27.992H27.9944H27.9969H27.9994H28.0018H28.0043H28.0067H28.0091H28.0115H28.0139H28.0163H28.0187H28.0211H28.0234H28.0258H28.0281H28.0305H28.0328H28.0351H28.0374H28.0397H28.042H28.0443H28.0466H28.0488H28.0511H28.0533H28.0556H28.0578H28.06H28.0623H28.0645H28.0667H28.0688H28.071H28.0732H28.0753H28.0775H28.0796H28.0818H28.0839H28.086H28.0882H28.0903H28.0924H28.0944H28.0965H28.0986H28.1007H28.1027H28.1048H28.1068H28.1089H28.1109H28.1129H28.1149H28.1169H28.1189H28.1209H28.1229H28.1249H28.1268H28.1288H28.1308H28.1327H28.1346H28.1366H28.1385H28.1404H28.1423H28.1442H28.1461H28.148H28.1499H28.1518H28.1537H28.1555H28.1574H28.1593H28.1611H28.1629H28.1648H28.1666H28.1684H28.1702H28.1721H28.1739H28.1757H28.1775H28.1792H28.181H28.1828H28.1846H28.1863H28.1881H28.1898H28.1916H28.1933H28.1951H28.1968H28.1985H28.2002H28.2019H28.2037H28.2054H28.2071H28.2087H28.2104H28.2121H28.2138H28.2155H28.2171H28.2188H28.2205H28.2221H28.2238H28.2254H28.227H28.2287H28.2303H28.2319H28.2336H28.2352H28.2368H28.2384H28.24H28.2416H28.2432H28.2448H28.2464H28.2479H28.2495H28.2511H28.2527H28.2542H28.2558H28.2574H28.2589H28.2605H28.262H28.2636H28.2651H28.2666H28.2682H28.2697H28.2712H28.2728H28.2743H28.2758H28.2773H28.2788H28.2803H28.2818H28.2833H28.2848H28.2863H28.2878H28.2893H28.2908H28.2923H28.2938H28.2952H28.2967H28.2982H28.2997H28.3011H28.3026H28.3041H28.3055H28.307H28.3084H28.3099H28.3114H28.3128H28.3143H28.3157H28.3171H28.3186H28.32H28.3215H28.3229H28.3243H28.3258H28.3272H28.3286H28.3301H28.3315H28.3329H28.3343H28.3358H28.3372H28.3386H28.34H28.3414H28.3429H28.3443H28.3457H28.3471H28.3485H28.3499H28.3513H28.3528H28.3542H28.3556H28.357H28.3584H28.3598H28.3612H28.3626H28.364H28.3654H28.3668H28.3682H28.3696H28.371H28.3724H28.3738H28.3752H28.3766H28.378H28.3794H28.3808H28.3822H28.3836H28.385H28.3864H28.3879H28.3893H28.3907H28.3921H28.3935H28.3949H28.3963H28.3977H28.3991H28.4005H28.4019H28.4033H28.4047H28.4061H28.4075H28.409H28.4104H28.4118H28.4132H28.4146H28.416H28.4175H28.4189H28.4203H28.4217H28.4231H28.4246H28.426H28.4274H28.4289H28.4303H28.4317H28.4332H28.4346H28.436H28.4375H28.4389H28.4404H28.4418H28.4433H28.4447H28.4462H28.4476H28.4491H28.4505H28.452H28.4535H28.4549H28.4564H28.4579H28.4594H28.4608H28.4623H28.4638H28.4653H28.4668H28.4683H28.4697H28.4712H28.4727H28.4742H28.4757H28.4773H28.4788H28.4803H28.4818H28.4833H28.4848H28.4864H28.4879H28.4894H28.491H28.4925H28.4941H28.4956H28.4972H28.4987H28.5003H28.5018H28.5034H28.505H28.5066H28.5081H28.5097H28.5113H28.5129H28.5145H28.5161H28.5177H28.5193H28.5209H28.5225H28.5242H28.5258H28.5274H28.5291H28.5307H28.5323H28.534H28.5356H28.5373H28.539H28.5406H28.5423H28.544H28.5457H28.5474H28.549H28.5507H28.5524H28.5542H28.5559H28.5576H28.5593H28.561H28.5628H28.5645H28.5663H28.568H28.5698H28.5715H28.5733H28.5751H28.5769H28.5787H28.5805H28.5822H28.5841H28.5859H28.5877H28.5895H28.5913H28.5932H28.595H28.5969H28.5987H28.6006H28.6024H28.6043H28.6062H28.6081H28.61H28.6119H28.6138H28.6157H28.6176H28.6196H28.6215H28.6234H28.6254H28.6273H28.6293H28.6313H28.6332H28.6352H28.6372H28.6392H28.6412H28.6432H28.6453H28.6473H28.6493H28.6514H28.6534H28.6555H28.6575H28.6596H28.6617H28.6638H28.6659H28.668H28.6701H28.6722H28.6744H28.6765H28.6786H28.6808H28.683H28.6851H28.6873H28.6895H28.6917H28.6939H28.6961H28.6983H28.7006H28.7028H28.7051H28.7073H28.7096H28.7119H28.7141H28.7164H28.7187H28.721H28.7234H28.7257H28.728H28.7304H28.7327H28.7351H28.7375H28.7399H28.7423H28.7447H28.7471H28.7495H28.7519H28.7544H28.7568H28.7593H28.7618H28.7642H28.7667H28.7692H28.7717H28.7743H28.7768H28.7793H28.7819H28.7844H28.787H28.7896H28.7922H28.7948H28.7974H28.8H28.8027H28.8053H28.808H28.8106H28.8133H28.816H28.8187H28.8214H28.8241H28.8269H28.8296H28.8324H28.8351H28.8379H28.8407H28.8435H28.8463H28.8491H28.8519H28.8548H28.8576H28.8605H28.8634H28.8663H28.8692H28.8721H28.875H29.375V12V9.75V8.875C29.375 8.7467 29.3714 8.61926 29.3642 8.49276L29.7554 8.44099C32.9979 8.01202 35.5 5.23511 35.5 1.875C35.5 1.11487 34.8851 0.5 34.125 0.5H33.25C30.7648 0.5 28.6001 1.87037 27.468 3.89205L27.3483 4.10591Z" stroke="#4F9568"/>
<path d="M49.5 36.9974C49.5 43.1 47.1236 47.7039 43.2548 50.7932C39.3723 53.8935 33.9451 55.5 27.8111 55.5C15.6637 55.5 6.5 46.1676 6.5 33.9434C6.5 21.7791 17.6465 12.5 29.8568 12.5C35.8853 12.5 40.7823 15.5265 44.1882 20.1117C47.5997 24.7043 49.5 30.8464 49.5 36.9974Z" stroke="#4F9568"/>
</svg>
