<svg width="56" height="56" viewBox="0 0 56 56" fill="none" xmlns="http://www.w3.org/2000/svg">
<path d="M27.3483 4.10591C26.1568 2.95681 24.5358 2.25 22.75 2.25H21.875C21.1149 2.25 20.5 2.86487 20.5 3.625C20.5 7.10605 23.1856 9.9605 26.5976 10.2293L26.5008 11.9723L26.4715 12.5H27H27H27H27.0001H27.0001H27.0002H27.0002H27.0003H27.0004H27.0005H27.0006H27.0007H27.0008H27.0009H27.0011H27.0012H27.0014H27.0015H27.0017H27.0019H27.0021H27.0023H27.0025H27.0027H27.003H27.0032H27.0035H27.0037H27.004H27.0043H27.0045H27.0048H27.0051H27.0055H27.0058H27.0061H27.0065H27.0068H27.0072H27.0075H27.0079H27.0083H27.0087H27.0091H27.0095H27.0099H27.0103H27.0108H27.0112H27.0117H27.0122H27.0126H27.0131H27.0136H27.0141H27.0146H27.0151H27.0157H27.0162H27.0167H27.0173H27.0179H27.0184H27.019H27.0196H27.0202H27.0208H27.0214H27.022H27.0227H27.0233H27.0239H27.0246H27.0253H27.0259H27.0266H27.0273H27.028H27.0287H27.0294H27.0301H27.0309H27.0316H27.0324H27.0331H27.0339H27.0347H27.0354H27.0362H27.037H27.0378H27.0386H27.0395H27.0403H27.0411H27.042H27.0428H27.0437H27.0446H27.0454H27.0463H27.0472H27.0481H27.049H27.05H27.0509H27.0518H27.0528H27.0537H27.0547H27.0556H27.0566H27.0576H27.0586H27.0596H27.0606H27.0616H27.0626H27.0636H27.0647H27.0657H27.0668H27.0678H27.0689H27.07H27.071H27.0721H27.0732H27.0743H27.0755H27.0766H27.0777H27.0788H27.08H27.0811H27.0823H27.0834H27.0846H27.0858H27.087H27.0882H27.0894H27.0906H27.0918H27.093H27.0943H27.0955H27.0967H27.098H27.0993H27.1005H27.1018H27.1031H27.1044H27.1057H27.107H27.1083H27.1096H27.1109H27.1123H27.1136H27.1149H27.1163H27.1177H27.119H27.1204H27.1218H27.1232H27.1246H27.126H27.1274H27.1288H27.1302H27.1316H27.1331H27.1345H27.136H27.1374H27.1389H27.1404H27.1418H27.1433H27.1448H27.1463H27.1478H27.1493H27.1508H27.1524H27.1539H27.1554H27.157H27.1585H27.1601H27.1616H27.1632H27.1648H27.1664H27.1679H27.1695H27.1711H27.1728H27.1744H27.176H27.1776H27.1793H27.1809H27.1825H27.1842H27.1859H27.1875H27.1892H27.1909H27.1926H27.1942H27.1959H27.1976H27.1994H27.2011H27.2028H27.2045H27.2062H27.208H27.2097H27.2115H27.2132H27.215H27.2168H27.2186H27.2203H27.2221H27.2239H27.2257H27.2275H27.2293H27.2312H27.233H27.2348H27.2366H27.2385H27.2403H27.2422H27.244H27.2459H27.2478H27.2496H27.2515H27.2534H27.2553H27.2572H27.2591H27.261H27.2629H27.2649H27.2668H27.2687H27.2707H27.2726H27.2745H27.2765H27.2785H27.2804H27.2824H27.2844H27.2864H27.2883H27.2903H27.2923H27.2943H27.2963H27.2984H27.3004H27.3024H27.3044H27.3065H27.3085H27.3105H27.3126H27.3147H27.3167H27.3188H27.3209H27.3229H27.325H27.3271H27.3292H27.3313H27.3334H27.3355H27.3376H27.3397H27.3418H27.344H27.3461H27.3482H27.3504H27.3525H27.3547H27.3568H27.359H27.3612H27.3633H27.3655H27.3677H27.3699H27.3721H27.3743H27.3765H27.3787H27.3809H27.3831H27.3853H27.3875H27.3898H27.392H27.3942H27.3965H27.3987H27.401H27.4032H27.4055H27.4077H27.41H27.4123H27.4146H27.4169H27.4191H27.4214H27.4237H27.426H27.4283H27.4306H27.433H27.4353H27.4376H27.4399H27.4422H27.4446H27.4469H27.4493H27.4516H27.454H27.4563H27.4587H27.461H27.4634H27.4658H27.4682H27.4705H27.4729H27.4753H27.4777H27.4801H27.4825H27.4849H27.4873H27.4897H27.4921H27.4946H27.497H27.4994H27.5018H27.5043H27.5067H27.5092H27.5116H27.5141H27.5165H27.519H27.5214H27.5239H27.5264H27.5289H27.5313H27.5338H27.5363H27.5388H27.5413H27.5438H27.5463H27.5488H27.5513H27.5538H27.5563H27.5588H27.5613H27.5639H27.5664H27.5689H27.5715H27.574H27.5765H27.5791H27.5816H27.5842H27.5867H27.5893H27.5919H27.5944H27.597H27.5996H27.6021H27.6047H27.6073H27.6099H27.6125H27.615H27.6176H27.6202H27.6228H27.6254H27.628H27.6307H27.6333H27.6359H27.6385H27.6411H27.6437H27.6464H27.649H27.6516H27.6543H27.6569H27.6596H27.6622H27.6648H27.6675H27.6701H27.6728H27.6755H27.6781H27.6808H27.6835H27.6861H27.6888H27.6915H27.6941H27.6968H27.6995H27.7022H27.7049H27.7076H27.7103H27.713H27.7157H27.7184H27.7211H27.7238H27.7265H27.7292H27.7319H27.7346H27.7373H27.7401H27.7428H27.7455H27.7482H27.751H27.7537H27.7564H27.7592H27.7619H27.7647H27.7674H27.7701H27.7729H27.7756H27.7784H27.7812H27.7839H27.7867H27.7894H27.7922H27.795H27.7977H27.8005H27.8033H27.806H27.8088H27.8116H27.8144H27.8172H27.8199H27.8227H27.8255H27.8283H27.8311H27.8339H27.8367H27.8395H27.8423H27.8451H27.8479H27.8507H27.8535H27.8563H27.8591H27.8619H27.8647H27.8676H27.8704H27.8732H27.876H27.8788H27.8817H27.8845H27.8873H27.8901H27.893H27.8958H27.8986H27.9015H27.9043H27.9071H27.91H27.9128H27.9156H27.9184H27.9212H27.9239H27.9267H27.9295H27.9322H27.935H27.9377H27.9405H27.9432H27.9459H27.9486H27.9513H27.954H27.9567H27.9594H27.962H27.9647H27.9673H27.97H27.9726H27.9752H27.9779H27.9805H27.9831H27.9857H27.9883H27.9909H27.9934H27.996H27.9986H28.0011H28.0037H28.0062H28.0088H28.0113H28.0138H28.0163H28.0188H28.0213H28.0238H28.0263H28.0288H28.0312H28.0337H28.0361H28.0386H28.041H28.0435H28.0459H28.0483H28.0507H28.0531H28.0556H28.0579H28.0603H28.0627H28.0651H28.0675H28.0698H28.0722H28.0745H28.0769H28.0792H28.0815H28.0839H28.0862H28.0885H28.0908H28.0931H28.0954H28.0977H28.1H28.1023H28.1045H28.1068H28.1091H28.1113H28.1136H28.1158H28.118H28.1203H28.1225H28.1247H28.1269H28.1291H28.1314H28.1335H28.1357H28.1379H28.1401H28.1423H28.1445H28.1466H28.1488H28.1509H28.1531H28.1552H28.1574H28.1595H28.1617H28.1638H28.1659H28.168H28.1701H28.1722H28.1743H28.1764H28.1785H28.1806H28.1827H28.1848H28.1868H28.1889H28.191H28.193H28.1951H28.1972H28.1992H28.2012H28.2033H28.2053H28.2073H28.2094H28.2114H28.2134H28.2154H28.2174H28.2194H28.2214H28.2234H28.2254H28.2274H28.2294H28.2314H28.2334H28.2353H28.2373H28.2393H28.2412H28.2432H28.2452H28.2471H28.2491H28.251H28.2529H28.2549H28.2568H28.2587H28.2607H28.2626H28.2645H28.2664H28.2684H28.2703H28.2722H28.2741H28.276H28.2779H28.2798H28.2817H28.2836H28.2855H28.2873H28.2892H28.2911H28.293H28.2949H28.2967H28.2986H28.3005H28.3023H28.3042H28.3061H28.3079H28.3098H28.3116H28.3135H28.3153H28.3172H28.319H28.3208H28.3227H28.3245H28.3263H28.3282H28.33H28.3318H28.3337H28.3355H28.3373H28.3391H28.3409H28.3428H28.3446H28.3464H28.3482H28.35H28.3518H28.3536H28.3554H28.3572H28.359H28.3608H28.3626H28.3644H28.3662H28.368H28.3698H28.3716H28.3734H28.3752H28.377H28.3788H28.3805H28.3823H28.3841H28.3859H28.3877H28.3895H28.3912H28.393H28.3948H28.3966H28.3983H28.4001H28.4019H28.4037H28.4054H28.4072H28.409H28.4108H28.4125H28.4143H28.4161H28.4178H28.4196H28.4214H28.4232H28.4249H28.4267H28.4285H28.4302H28.432H28.4338H28.4355H28.4373H28.4391H28.4408H28.4426H28.4444H28.4461H28.4479H28.4497H28.4514H28.4532H28.455H28.4568H28.4585H28.4603H28.4621H28.4638H28.4656H28.4674H28.4692H28.4709H28.4727H28.4745H28.4763H28.478H28.4798H28.4816H28.4834H28.4852H28.4869H28.4887H28.4905H28.4923H28.4941H28.4959H28.4976H28.4994H28.5012H28.503H28.5048H28.5066H28.5084H28.5102H28.512H28.5138H28.5156H28.5174H28.5192H28.521H28.5228H28.5246H28.5264H28.5282H28.5301H28.5319H28.5337H28.5355H28.5373H28.5392H28.541H28.5428H28.5446H28.5465H28.5483H28.5501H28.552H28.5538H28.5557H28.5575H28.5594H28.5612H28.5631H28.5649H28.5668H28.5686H28.5705H28.5723H28.5742H28.5761H28.5779H28.5798H28.5817H28.5836H28.5855H28.5873H28.5892H28.5911H28.593H28.5949H28.5968H28.5987H28.6006H28.6025H28.6044H28.6064H28.6083H28.6102H28.6121H28.614H28.616H28.6179H28.6199H28.6218H28.6237H28.6257H28.6276H28.6296H28.6316H28.6335H28.6355H28.6375H28.6394H28.6414H28.6434H28.6454H28.6474H28.6493H28.6513H28.6533H28.6554H28.6574H28.6594H28.6614H28.6634H28.6654H28.6675H28.6695H28.6715H28.6736H28.6756H28.6777H28.6797H28.6818H28.6839H28.6859H28.688H28.6901H28.6922H28.6942H28.6963H28.6984H28.7005H28.7026H28.7047H28.7069H28.709H28.7111H28.7132H28.7154H28.7175H28.7197H28.7218H28.724H28.7261H28.7283H28.7305H28.7326H28.7348H28.737H28.7392H28.7414H28.7436H28.7458H28.748H28.7502H28.7525H28.7547H28.7569H28.7592H28.7614H28.7637H28.7659H28.7682H28.7705H28.7727H28.775H28.7773H28.7796H28.7819H28.7842H28.7865H28.7888H28.7912H28.7935H28.7958H28.7982H28.8005H28.8029H28.8052H28.8076H28.81H28.8124H28.8148H28.8171H28.8195H28.822H28.8244H28.8268H28.8292H28.8316H28.8341H28.8365H28.839H28.8415H28.8439H28.8464H28.8489H28.8514H28.8539H28.8564H28.8589H28.8614H28.8639H28.8664H28.869H28.8715H28.8741H28.8766H28.8792H28.8818H28.8844H28.887H28.8896H28.8922H28.8948H28.8974H28.9H28.9027H28.9053H28.908H28.9106H28.9133H28.916H28.9186H28.9213H28.924H28.9267H28.9294H28.9322H28.9349H28.9376H28.9404H28.9431H28.9459H28.9487H28.9515H28.9542H28.957H28.9598H28.9627H28.9655H28.9683H28.9711H28.974H28.9768H28.9797H28.9826H28.9855H28.9884H28.9913H28.9942H28.9971H29H29.5285L29.4992 11.9723L29.375 9.73612V8.875C29.375 8.7467 29.3714 8.61926 29.3642 8.49276L29.7554 8.44099C32.9979 8.01202 35.5 5.23511 35.5 1.875C35.5 1.11487 34.8851 0.5 34.125 0.5H33.25C30.7648 0.5 28.6001 1.87037 27.468 3.89205L27.3483 4.10591Z" stroke="#4F9568"/>
<path d="M49.5 36.9974C49.5 43.1 47.1236 47.7039 43.2548 50.7932C39.3723 53.8935 33.9451 55.5 27.8111 55.5C15.6637 55.5 6.5 46.1676 6.5 33.9434C6.5 21.7791 17.6465 12.5 29.8568 12.5C35.8853 12.5 40.7823 15.5265 44.1882 20.1117C47.5997 24.7043 49.5 30.8464 49.5 36.9974Z" stroke="#4F9568"/>
</svg>
