<svg width="380" height="128" viewBox="0 0 380 128" fill="none" xmlns="http://www.w3.org/2000/svg">
<g clip-path="url(#clip0_634_1124)">
<rect width="380" height="128" fill="#FFF0D3"/>
<g filter="url(#filter0_d_634_1124)">
<path d="M144 80.9779C144 96.2362 132.4 100.898 118.903 100.898C105.407 100.898 94 93.5335 94 78.2752C94 63.0169 102.766 54.1511 117.507 50.8978C131.003 50.8978 144 65.7196 144 80.9779Z" fill="white"/>
<circle cx="117.051" cy="64.9486" r="2.05078" fill="black"/>
<circle cx="131.113" cy="66.9994" r="2.05078" fill="black"/>
<path d="M124.18 74.436C124.18 75.3447 123.611 76.0814 122.91 76.0814C122.209 76.0814 121.641 75.7911 121.641 74.436C121.641 73.0809 122.209 72.7906 122.91 72.7906C123.611 72.7906 124.18 72.4034 124.18 74.436Z" fill="black"/>
</g>
<ellipse cx="435" cy="130.5" rx="274" ry="233.5" fill="#FEDDB6"/>
<ellipse cx="46.9461" cy="62.8633" rx="3.62723" ry="3.62723" fill="#222222"/>
<path d="M78.5452 65.3048C78.5452 65.9597 74.9526 64.956 71.6395 64.956C64.9431 65.2351 66.2684 65.0955 65.6406 64.6073C65.1237 64.2052 68.3264 62.8634 71.6395 62.8634C74.9526 62.8634 78.5452 64.6499 78.5452 65.3048Z" fill="#222222"/>
<path d="M81.6244 71.2488C85.8794 76.3372 81.0569 97.9495 61.8046 97.9495C38.0881 97.9495 37.6696 80.3017 38.3671 74.3028C42.2734 70.6058 46.9595 76.4143 58.2471 76.4143C69.5348 76.4143 76.323 69.2259 81.6244 71.2488Z" fill="#222222"/>
<path d="M69.1285 77.9068C69.1285 79.9797 67.5295 85.8823 58.8391 85.8823C52.1649 85.8823 48.2021 81.0118 48.2021 78.939C48.2021 76.8662 53.1565 78.376 58.8391 78.376C64.5218 78.376 69.1285 75.834 69.1285 77.9068Z" fill="white"/>
<rect x="57.6216" y="77.5026" width="1.5346" height="9.23028" transform="rotate(-7.36997 57.6216 77.5026)" fill="#222222"/>
<path d="M258.568 45.608H260.712V60.424H258.568V45.608ZM254.2 47.144H256.312C256.312 51.672 254.776 55.384 249.512 57.928L248.408 56.232C252.664 54.184 254.2 51.496 254.2 47.528V47.144ZM249.192 47.144H255.208V48.824H249.192V47.144ZM263.239 53.192H276.647V54.872H263.239V53.192ZM269.047 54.088H271.191V57.208H269.047V54.088ZM264.791 58.472H275.175V60.168H264.791V58.472ZM264.791 56.088H266.903V59.192H264.791V56.088ZM264.951 46.072H267.047V47.592H272.823V46.072H274.935V52.168H264.951V46.072ZM267.047 49.192V50.504H272.823V49.192H267.047ZM287.878 50.024H289.99V52.088H287.878V50.024ZM287.494 46.664H289.35V47.032C289.35 49.048 287.318 50.6 283.478 50.856L282.822 49.272C286.07 49.096 287.494 48.024 287.494 47.032V46.664ZM288.582 46.664H290.422V47.032C290.422 48.024 291.83 49.096 295.094 49.272L294.438 50.856C290.614 50.6 288.582 49.064 288.582 47.032V46.664ZM283.478 45.976H294.454V47.592H283.478V45.976ZM283.462 54.536H294.422V56.136H283.462V54.536ZM282.262 51.368H295.686V53.048H282.262V51.368ZM288.934 56.568C291.798 56.568 293.462 57.256 293.462 58.52C293.462 59.8 291.798 60.472 288.934 60.472C286.07 60.472 284.406 59.8 284.406 58.52C284.406 57.256 286.07 56.568 288.934 56.568ZM288.934 57.96C287.382 57.96 286.614 58.104 286.614 58.52C286.614 58.92 287.382 59.08 288.934 59.08C290.486 59.08 291.254 58.92 291.254 58.52C291.254 58.104 290.486 57.96 288.934 57.96ZM287.878 53.496H290.006V55.496H287.878V53.496ZM297.141 53.16H310.533V54.856H297.141V53.16ZM298.757 58.472H309.029V60.168H298.757V58.472ZM298.757 55.848H300.885V59.016H298.757V55.848ZM303.845 46.04C307.061 46.04 309.205 47.208 309.205 49.096C309.205 50.984 307.061 52.152 303.845 52.152C300.613 52.152 298.485 50.984 298.485 49.096C298.485 47.208 300.613 46.04 303.845 46.04ZM303.845 47.736C301.845 47.736 300.677 48.2 300.677 49.096C300.677 50.008 301.845 50.456 303.845 50.456C305.845 50.456 307.013 50.008 307.013 49.096C307.013 48.2 305.845 47.736 303.845 47.736ZM319.412 46.408H321.156V47.72C321.156 50.664 319.876 53.256 317.06 54.232L315.924 52.552C318.404 51.72 319.412 49.736 319.412 47.72V46.408ZM319.844 46.408H321.572V47.928C321.572 49.704 322.564 51.432 324.884 52.152L323.78 53.8C321.108 52.904 319.844 50.6 319.844 47.928V46.408ZM325.7 45.608H327.828V54.36H325.7V45.608ZM327.236 49.032H329.796V50.792H327.236V49.032ZM322.996 54.696C326.068 54.696 328.004 55.768 328.004 57.56C328.004 59.368 326.068 60.424 322.996 60.424C319.908 60.424 317.972 59.368 317.972 57.56C317.972 55.768 319.908 54.696 322.996 54.696ZM322.996 56.344C321.108 56.344 320.084 56.744 320.084 57.56C320.084 58.392 321.108 58.776 322.996 58.776C324.884 58.776 325.892 58.392 325.892 57.56C325.892 56.744 324.884 56.344 322.996 56.344ZM331.539 55.288H332.579C334.739 55.288 336.115 55.256 337.779 55L337.955 56.728C336.259 57.016 334.787 57.048 332.579 57.048H331.539V55.288ZM331.539 47.144H337.523V48.84H333.555V55.992H331.539V47.144ZM332.979 51.016H337.235V52.664H332.979V51.016ZM341.747 45.608H343.779V60.424H341.747V45.608ZM339.971 51.336H342.419V53.048H339.971V51.336ZM338.547 45.832H340.547V59.752H338.547V45.832ZM345.921 52.248H359.345V53.8H345.921V52.248ZM347.425 54.536H357.745V58.056H349.569V59.32H347.457V56.712H355.649V55.976H347.425V54.536ZM347.457 58.872H358.161V60.312H347.457V58.872ZM347.569 45.864H357.713V49.352H349.697V50.568H347.585V48.024H355.617V47.288H347.569V45.864ZM347.585 50.12H357.985V51.56H347.585V50.12ZM270.407 74.968H272.583V80.424H270.407V74.968ZM275.527 74.968H277.703V80.424H275.527V74.968ZM267.383 73.848H280.807V75.56H267.383V73.848ZM274.055 66.104C277.223 66.104 279.415 67.4 279.415 69.432C279.415 71.432 277.223 72.728 274.055 72.728C270.903 72.728 268.711 71.432 268.711 69.432C268.711 67.4 270.903 66.104 274.055 66.104ZM274.055 67.8C272.119 67.8 270.887 68.376 270.887 69.432C270.887 70.472 272.119 71.048 274.055 71.048C276.007 71.048 277.223 70.472 277.223 69.432C277.223 68.376 276.007 67.8 274.055 67.8ZM285.83 67.944H287.526V69.608C287.526 73.032 286.134 76.376 283.35 77.64L282.15 75.96C284.63 74.856 285.83 72.12 285.83 69.608V67.944ZM286.31 67.944H287.99V69.608C287.99 72.008 289.174 74.568 291.654 75.592L290.502 77.272C287.686 76.056 286.31 72.904 286.31 69.608V67.944ZM282.742 67.032H291.046V68.776H282.742V67.032ZM292.422 65.608H294.566V80.424H292.422V65.608ZM306.645 65.608H308.757V80.424H306.645V65.608ZM308.277 71.384H310.901V73.16H308.277V71.384ZM297.077 67.8H305.701V69.496H297.077V67.8ZM301.413 70.328C303.573 70.328 305.173 71.8 305.173 73.864C305.173 75.928 303.573 77.4 301.413 77.4C299.253 77.4 297.653 75.928 297.653 73.864C297.653 71.8 299.253 70.328 301.413 70.328ZM301.413 72.056C300.405 72.056 299.685 72.728 299.685 73.864C299.685 75 300.405 75.672 301.413 75.672C302.421 75.672 303.141 75 303.141 73.864C303.141 72.728 302.421 72.056 301.413 72.056ZM300.341 65.848H302.469V68.44H300.341V65.848ZM313.683 69.608H323.955V71.288H313.683V69.608ZM312.019 72.824H325.443V74.52H312.019V72.824ZM313.683 66.136H315.795V70.44H313.683V66.136ZM313.539 78.408H324.035V80.104H313.539V78.408ZM313.539 75.704H315.667V78.856H313.539V75.704ZM341.746 65.608H343.778V80.424H341.746V65.608ZM339.97 71.288H342.418V73.016H339.97V71.288ZM338.626 65.864H340.61V79.72H338.626V65.864ZM331.154 67.272H337.922V68.968H331.154V67.272ZM331.122 77.064L330.898 75.336C332.738 75.336 335.826 75.288 338.034 74.984L338.178 76.52C335.906 77.016 332.93 77.064 331.122 77.064ZM332.082 68.36H333.986V75.784H332.082V68.36ZM335.09 68.36H336.994V75.784H335.09V68.36ZM353.729 69.624H356.465V71.304H353.729V69.624ZM356.193 65.608H358.321V76.552H356.193V65.608ZM348.529 78.472H358.657V80.168H348.529V78.472ZM348.529 75.624H350.673V79.656H348.529V75.624ZM346.609 72.872H347.761C350.433 72.872 352.001 72.824 353.841 72.52L354.017 74.184C352.161 74.536 350.497 74.584 347.761 74.584H346.609V72.872ZM346.609 66.728H353.345V68.424H348.721V73.048H346.609V66.728ZM348.081 69.784H352.881V71.432H348.081V69.784Z" fill="#55280F"/>
<path d="M94 81.6665C94 101.543 78.4744 111.898 58.6995 111.898C38.9246 111.898 24 96.6844 24 76.8079C24 56.9313 42.1791 41.8978 61.954 41.8978C81.7289 41.8978 94 61.7899 94 81.6665Z" fill="#FFCF71"/>
<path d="M66.3426 80.7626C66.3426 83.9648 64.235 96.5058 55.7365 96.5058C50.1499 96.5058 49.6177 83.9648 49.6177 80.7626C52.9137 78.1665 50.8298 81.4805 56.4164 81.4805C64.7789 80.8686 62.4783 77.7338 66.3426 80.7626Z" fill="#FFB4B4"/>
<path d="M66.3426 80.777C66.3426 83.9792 64.235 96.5202 55.7365 96.5202C50.1499 96.5202 49.6177 83.9792 49.6177 80.777C52.9137 78.1809 50.1499 94.2086 55.7365 94.2086C64.099 93.5967 62.4783 77.7482 66.3426 80.777Z" fill="black"/>
<ellipse cx="47.6466" cy="65.911" rx="3.33138" ry="3.3314" fill="black"/>
<ellipse cx="71.1692" cy="66.3869" rx="3.73931" ry="3.80731" fill="black"/>
<path d="M71.2376 80.1097C71.2376 81.5181 64.8822 81.8889 57.1291 81.8889C49.376 81.8889 43.0908 80.7472 43.0908 79.3388C43.0908 77.9304 49.1192 79.0423 56.8723 79.0423C64.6254 79.0423 71.2376 78.7014 71.2376 80.1097Z" fill="black"/>
<path d="M73.2039 86.4557C71.8392 86.8178 70.7462 84.1478 69.8511 80.7744C68.956 77.4009 69.3367 74.3726 70.7014 74.0105C72.0661 73.6484 71.6847 76.5573 72.5798 79.9308C73.4749 83.3042 74.5686 86.0936 73.2039 86.4557Z" fill="black"/>
<path d="M58.7281 84.7441C58.7281 87.5227 57.4403 89.7752 56.6898 89.7752C55.9393 89.7752 56.0104 87.5227 56.0104 84.7441C56.0104 81.9655 56.6187 79.713 57.3692 79.713C58.1197 79.713 58.7281 81.9655 58.7281 84.7441Z" fill="black"/>
<path d="M98.4085 21.9634C97.9071 21.6133 97.2028 21.5313 96.5974 21.7527C95.9921 21.974 95.5989 22.4573 95.5736 22.9999L95.3023 29.5152L88.6985 32.958C88.1472 33.2469 87.8388 33.767 87.9082 34.2993C87.9776 34.8317 88.403 35.292 89.0121 35.4815L96.3952 37.7819L98.3708 44.1254C98.5348 44.6474 99.0477 45.0515 99.6902 45.1609C100.333 45.2703 100.997 45.071 101.404 44.6458L106.22 39.5627L114.033 40.028C114.689 40.0645 115.316 39.7964 115.646 39.3266C115.976 38.8568 115.957 38.2768 115.597 37.8268L111.195 32.3705L114.068 26.3198C114.306 25.8208 114.18 25.2507 113.742 24.8533C113.303 24.4559 112.632 24.2939 112.002 24.4369L104.466 26.1644L98.4085 21.9634Z" fill="#E79153"/>
<path d="M158.241 56.7582C158.255 56.4242 158.033 56.112 157.671 55.9555C157.309 55.7989 156.874 55.8272 156.545 56.0251L152.605 58.4125L148.048 57.0985C147.667 56.9893 147.243 57.0656 146.956 57.2972C146.669 57.5287 146.561 57.8747 146.683 58.1901L148.156 62.0146L145.178 65.232C144.934 65.4974 144.892 65.8566 145.074 66.1547C145.256 66.4527 145.628 66.6413 146.034 66.6406L150.871 66.6138L153.59 69.9066C153.82 70.1822 154.218 70.3296 154.621 70.2811C155.024 70.2326 155.358 70.0031 155.485 69.6868L157.011 65.8419L161.674 64.6699C162.059 64.5734 162.347 64.3051 162.413 63.9781C162.479 63.6511 162.317 63.3215 161.991 63.1252L158.088 60.7824L158.241 56.7582Z" fill="#E79153"/>
</g>
<defs>
<filter id="filter0_d_634_1124" x="91.2222" y="49.2312" width="55.5556" height="55.5556" filterUnits="userSpaceOnUse" color-interpolation-filters="sRGB">
<feFlood flood-opacity="0" result="BackgroundImageFix"/>
<feColorMatrix in="SourceAlpha" type="matrix" values="0 0 0 0 0 0 0 0 0 0 0 0 0 0 0 0 0 0 127 0" result="hardAlpha"/>
<feOffset dy="1.11111"/>
<feGaussianBlur stdDeviation="1.38889"/>
<feComposite in2="hardAlpha" operator="out"/>
<feColorMatrix type="matrix" values="0 0 0 0 0 0 0 0 0 0 0 0 0 0 0 0 0 0 0.25 0"/>
<feBlend mode="normal" in2="BackgroundImageFix" result="effect1_dropShadow_634_1124"/>
<feBlend mode="normal" in="SourceGraphic" in2="effect1_dropShadow_634_1124" result="shape"/>
</filter>
<clipPath id="clip0_634_1124">
<rect width="380" height="128" fill="white"/>
</clipPath>
</defs>
</svg>
