<svg width="56" height="56" viewBox="0 0 56 56" fill="none" xmlns="http://www.w3.org/2000/svg">
<path d="M28.8111 51.5C35.1071 51.5 40.7743 49.8521 44.8788 46.5746C48.997 43.2861 51.5 38.3887 51.5 31.9974C51.5 25.6546 49.5436 19.298 45.991 14.5154C42.4328 9.72532 37.2582 6.5 30.8568 6.5C18.2072 6.5 6.5 16.1201 6.5 28.9434C6.5 41.707 16.0987 51.5 28.8111 51.5Z" stroke="#4F9568"/>
<path d="M53.0002 31.8289H45.0002C44.1718 31.8289 43.5002 32.5004 43.5002 33.3289C43.5002 34.1573 44.1718 34.8289 45.0002 34.8289H53.0002C53.8287 34.8289 54.5002 34.1573 54.5002 33.3289C54.5002 32.5004 53.8287 31.8289 53.0002 31.8289Z" stroke="#4F9568"/>
<path d="M52.8907 25.9417L44.9392 26.8215C44.1158 26.9126 43.5221 27.654 43.6132 28.4774C43.7044 29.3008 44.4457 29.8944 45.2691 29.8033L53.2206 28.9236C54.044 28.8324 54.6376 28.0911 54.5465 27.2677C54.4554 26.4443 53.7141 25.8506 52.8907 25.9417Z" stroke="#4F9568"/>
<path d="M3.15918 31.8289H11.1592C11.9876 31.8289 12.6592 32.5004 12.6592 33.3289C12.6592 34.1573 11.9876 34.8289 11.1592 34.8289H3.15918C2.33075 34.8289 1.65918 34.1573 1.65918 33.3289C1.65918 32.5004 2.33075 31.8289 3.15918 31.8289Z" stroke="#4F9568"/>
<path d="M3.26875 25.9417L11.2202 26.8215C12.0436 26.9126 12.6373 27.654 12.5462 28.4774C12.4551 29.3008 11.7137 29.8944 10.8903 29.8033L2.93884 28.9236C2.11543 28.8324 1.52179 28.0911 1.61289 27.2677C1.704 26.4443 2.44535 25.8506 3.26875 25.9417Z" stroke="#4F9568"/>
<path d="M19.3733 12.5784L19.3263 12.5085L19.2589 12.4578C15.8738 9.91297 13.6529 8.74538 12.1581 8.28585C11.4061 8.05466 10.8192 7.99674 10.3501 8.04555C9.87248 8.09525 9.54248 8.25304 9.30725 8.41129C9.068 8.57225 8.86227 8.88317 8.70332 9.29572C8.53756 9.72593 8.39986 10.3251 8.33794 11.1385C8.21419 12.7641 8.38984 15.292 9.30214 19.1418L9.32309 19.2302L9.37381 19.3056C9.87411 20.0492 10.3977 20.5372 10.9858 20.7549C11.5916 20.9791 12.1769 20.8847 12.7205 20.6519C13.25 20.425 13.7811 20.0492 14.3089 19.6525C14.4452 19.55 14.5819 19.4457 14.72 19.3404C15.1323 19.0257 15.557 18.7017 16.0204 18.3899C16.4838 18.0782 16.944 17.8069 17.3909 17.5435C17.5405 17.4554 17.6886 17.368 17.8349 17.2804C18.4012 16.9409 18.9495 16.5906 19.3592 16.1857C19.7797 15.7699 20.0877 15.2633 20.1083 14.6177C20.1283 13.9909 19.8736 13.322 19.3733 12.5784Z" stroke="#4F9568"/>
<path d="M46.0903 18.4159L46.1511 18.3558L46.1884 18.2789C47.9154 14.7191 48.5874 12.4648 48.7382 10.9997C48.8141 10.2624 48.7601 9.70615 48.6281 9.27682C48.4938 8.83967 48.286 8.55849 48.0954 8.36596C47.8993 8.16786 47.5703 8.02882 47.1584 7.95099C46.7285 7.86973 46.1482 7.84354 45.385 7.92375C43.8596 8.08405 41.5585 8.67419 38.1756 10.1678L38.0913 10.205L38.0258 10.2698C37.4287 10.861 37.0685 11.4345 36.9738 12.0254C36.8762 12.6336 37.074 13.1651 37.3894 13.6303C37.6966 14.0836 38.1417 14.5125 38.6037 14.9335C38.7232 15.0424 38.8444 15.1513 38.9668 15.2612C39.332 15.5892 39.7077 15.9265 40.0793 16.3018C40.4508 16.6772 40.7844 17.0562 41.1087 17.4247C41.2174 17.5482 41.325 17.6705 41.4327 17.7911C41.849 18.2574 42.2734 18.7067 42.7236 19.0185C43.1856 19.3385 43.7151 19.5416 44.3242 19.4502C44.9161 19.3614 45.4932 19.0071 46.0903 18.4159Z" stroke="#4F9568"/>
</svg>
