<svg width="56" height="56" viewBox="0 0 56 56" fill="none" xmlns="http://www.w3.org/2000/svg">
<path d="M28.8114 51.8289C35.1073 51.8289 40.7746 50.181 44.879 46.9035C48.9972 43.615 51.5002 38.7176 51.5002 32.3263C51.5002 25.9834 49.5439 19.6268 45.9912 14.8442C42.4331 10.0542 37.2585 6.82886 30.857 6.82886C18.2075 6.82886 6.50024 16.449 6.50024 29.2723C6.50024 42.0359 16.0989 51.8289 28.8114 51.8289Z" stroke="#4F9568"/>
<path d="M19.3718 12.8367L19.3248 12.7668L19.2574 12.7161C15.8724 10.1713 13.6514 9.00368 12.1566 8.54415C11.4046 8.31296 10.8177 8.25504 10.3486 8.30385C9.87101 8.35355 9.54101 8.51134 9.30579 8.66959C9.06653 8.83055 8.8608 9.14147 8.70185 9.55402C8.5361 9.98423 8.39839 10.5834 8.33648 11.3968C8.21273 13.0224 8.38837 15.5503 9.30068 19.4001L9.32163 19.4885L9.37235 19.5639C9.87264 20.3075 10.3963 20.7955 10.9844 21.0132C11.5901 21.2374 12.1755 21.143 12.7191 20.9102C13.2485 20.6833 13.7796 20.3075 14.3075 19.9108C14.4438 19.8083 14.5805 19.704 14.7185 19.5987C15.1309 19.284 15.5555 18.96 16.019 18.6482C16.4824 18.3365 16.9426 18.0652 17.3894 17.8018C17.539 17.7137 17.6871 17.6263 17.8334 17.5387C18.3998 17.1992 18.9481 16.8489 19.3577 16.444C19.7782 16.0282 20.0862 15.5216 20.1068 14.876C20.1268 14.2492 19.8721 13.5803 19.3718 12.8367Z" stroke="#4F9568"/>
<path d="M53.0002 31.8289H45.0002C44.1718 31.8289 43.5002 32.5004 43.5002 33.3289C43.5002 34.1573 44.1718 34.8289 45.0002 34.8289H53.0002C53.8287 34.8289 54.5002 34.1573 54.5002 33.3289C54.5002 32.5004 53.8287 31.8289 53.0002 31.8289Z" stroke="#4F9568"/>
<path d="M52.8907 25.9417L44.9392 26.8215C44.1158 26.9126 43.5221 27.654 43.6132 28.4774C43.7044 29.3008 44.4457 29.8944 45.2691 29.8033L53.2206 28.9236C54.044 28.8324 54.6376 28.0911 54.5465 27.2677C54.4554 26.4443 53.7141 25.8506 52.8907 25.9417Z" stroke="#4F9568"/>
<path d="M3.15918 31.8289H11.1592C11.9876 31.8289 12.6592 32.5004 12.6592 33.3289C12.6592 34.1573 11.9876 34.8289 11.1592 34.8289H3.15918C2.33075 34.8289 1.65918 34.1573 1.65918 33.3289C1.65918 32.5004 2.33075 31.8289 3.15918 31.8289Z" stroke="#4F9568"/>
<path d="M3.26875 25.9417L11.2202 26.8215C12.0436 26.9126 12.6373 27.654 12.5462 28.4774C12.4551 29.3008 11.7137 29.8944 10.8903 29.8033L2.93884 28.9236C2.11543 28.8324 1.52179 28.0911 1.61289 27.2677C1.704 26.4443 2.44535 25.8506 3.26875 25.9417Z" stroke="#4F9568"/>
<path d="M48.4145 18.4159L48.4753 18.3558L48.5126 18.2789C50.2396 14.7191 50.9116 12.4648 51.0624 10.9997C51.1383 10.2624 51.0843 9.70615 50.9523 9.27682C50.818 8.83967 50.6102 8.55849 50.4196 8.36596C50.2235 8.16786 49.8945 8.02882 49.4827 7.95099C49.0527 7.86973 48.4725 7.84354 47.7092 7.92375C46.1839 8.08405 43.8828 8.67419 40.4998 10.1678L40.4155 10.205L40.35 10.2698C39.7529 10.861 39.3928 11.4345 39.298 12.0254C39.2004 12.6336 39.3982 13.1651 39.7136 13.6303C40.0208 14.0836 40.4659 14.5125 40.9279 14.9335C41.0474 15.0424 41.1686 15.1513 41.291 15.2612C41.6563 15.5892 42.0319 15.9265 42.4035 16.3018C42.7751 16.6772 43.1086 17.0562 43.4329 17.4247C43.5416 17.5482 43.6492 17.6705 43.7569 17.7911C44.1732 18.2574 44.5976 18.7067 45.0478 19.0185C45.5098 19.3385 46.0393 19.5416 46.6484 19.4502C47.2403 19.3614 47.8174 19.0071 48.4145 18.4159Z" stroke="#4F9568"/>
</svg>
