<svg width="512" height="512" viewBox="0 0 512 512" fill="none" xmlns="http://www.w3.org/2000/svg">
<path d="M512 290.879C512 436.262 398.441 512 253.802 512C109.163 512 0 400.725 0 255.342C0 109.959 132.967 0 277.606 0C422.245 0 512 145.496 512 290.879Z" fill="#D9D9D9"/>
<circle cx="144" cy="181" r="26" fill="#828282"/>
<path d="M370.5 198.5C370.5 203.194 344.749 196 321 196C273.001 198 282.5 197 278 193.5C274.295 190.618 297.252 181 321 181C344.749 181 370.5 193.806 370.5 198.5Z" fill="#828282"/>
<path d="M392.568 241.107C423.068 277.581 388.501 432.498 250.5 432.498C80.5006 432.498 77.5006 305.998 82.5004 262.998C110.5 236.498 144.091 278.133 225 278.133C305.91 278.133 354.568 226.607 392.568 241.107Z" fill="#828282"/>
<path d="M303 288.832C303 303.69 291.538 346 229.246 346C181.405 346 153 311.088 153 296.23C153 281.372 188.513 292.195 229.246 292.195C269.979 292.195 303 273.974 303 288.832Z" fill="white"/>
<rect x="220.517" y="285.932" width="11" height="66.1626" transform="rotate(-7.36997 220.517 285.932)" fill="#828282"/>
</svg>
