<svg width="32" height="32" viewBox="0 0 32 32" fill="none" xmlns="http://www.w3.org/2000/svg">
<path d="M13.3333 15.3334H22.6667V17.3334H13.3333V15.3334ZM13.3333 11.3334H25.3333V13.3334H13.3333V11.3334ZM26.6667 6.66675H12C10.5333 6.66675 9.33333 7.86675 9.33333 9.33341V28.0001L14.6667 22.6667H26.6667C28.1333 22.6667 29.3333 21.4667 29.3333 20.0001V9.33341C29.3333 7.86675 28.1333 6.66675 26.6667 6.66675ZM26.6667 20.0001H13.6L12 21.6001V9.33341H26.6667V20.0001ZM4 9.33341C3.2 9.33341 2.66667 9.86675 2.66667 10.6667C2.66667 11.4667 3.2 12.0001 4 12.0001H6.66667V9.33341H4ZM2.66667 14.6667C1.86667 14.6667 1.33333 15.2001 1.33333 16.0001C1.33333 16.8001 1.86667 17.3334 2.66667 17.3334H6.66667V14.6667H2.66667ZM1.33333 20.0001C0.533333 20.0001 0 20.5334 0 21.3334C0 22.1334 0.533333 22.6667 1.33333 22.6667H6.66667V20.0001H1.33333Z" fill="#343434"/>
</svg>
