<svg width="48" height="48" viewBox="0 0 48 48" fill="none" xmlns="http://www.w3.org/2000/svg">
<path d="M0 28.8769C0 43.5249 11.1365 48 24.0931 48C37.0497 48 48 40.9303 48 26.2823C48 11.6343 39.5842 3.12312 25.4337 0C12.477 0 0 14.2289 0 28.8769Z" fill="white"/>
<circle cx="1.96875" cy="1.96875" r="1.96875" transform="matrix(-1 0 0 1 41.4375 15.2)" fill="black"/>
<circle cx="1.96875" cy="1.96875" r="1.96875" transform="matrix(-1 0 0 1 27.9375 17.1687)" fill="black"/>
<path d="M32.625 26.2766C32.625 27.149 33.1707 27.8562 33.8438 27.8562C34.5168 27.8562 35.0625 27.5774 35.0625 26.2766C35.0625 24.9757 34.5168 24.697 33.8438 24.697C33.1707 24.697 32.625 24.3253 32.625 26.2766Z" fill="black"/>
</svg>
