<svg width="56" height="56" viewBox="0 0 56 56" fill="none" xmlns="http://www.w3.org/2000/svg">
<path d="M52 31.2699C52 44.8996 41.3539 52 27.7939 52C14.234 52 4 41.568 4 27.9383C4 14.3087 16.4656 4 30.0256 4C43.5855 4 52 17.6403 52 31.2699Z" fill="#FA8BAC"/>
<circle cx="17.5" cy="20.9688" r="2.4375" fill="black"/>
<path d="M38.7341 22.6094C38.7341 23.0495 36.3199 22.375 34.0935 22.375C29.5935 22.5625 30.4841 22.4687 30.0622 22.1406C29.7148 21.8704 31.8671 20.9688 34.0935 20.9688C36.3199 20.9688 38.7341 22.1693 38.7341 22.6094Z" fill="black"/>
<path d="M40.8036 26.6037C43.663 30.0231 40.4222 44.5466 27.4847 44.5466C11.5472 44.5466 11.266 32.6873 11.7347 28.656C14.3597 26.1716 17.5088 30.0749 25.0941 30.0749C32.6794 30.0749 37.2411 25.2443 40.8036 26.6037Z" fill="black"/>
<path d="M32.4062 31.078C32.4062 32.4709 31.3317 36.4375 25.4918 36.4375C21.0067 36.4375 18.3438 33.1645 18.3438 31.7716C18.3438 30.3786 21.6731 31.3932 25.4918 31.3932C29.3105 31.3932 32.4062 29.685 32.4062 31.078Z" fill="white"/>
<rect x="24.6736" y="30.8062" width="1.03125" height="6.20275" transform="rotate(-7.36996 24.6736 30.8062)" fill="black"/>
</svg>
