<svg width="56" height="56" viewBox="0 0 56 56" fill="none" xmlns="http://www.w3.org/2000/svg">
<path d="M35 1.875C35 4.98125 32.6867 7.54883 29.6898 7.94531C29.4957 6.48516 28.8531 5.16719 27.9043 4.13633C28.9516 2.26602 30.9531 1 33.25 1H34.125C34.609 1 35 1.39102 35 1.875ZM21 3.625C21 3.14102 21.391 2.75 21.875 2.75H22.75C26.1324 2.75 28.875 5.49258 28.875 8.875V9.75V14.125C28.875 14.609 28.484 15 28 15C27.516 15 27.125 14.609 27.125 14.125V9.75C23.7426 9.75 21 7.00742 21 3.625Z" fill="#828282"/>
<path d="M50 36.9974C50 49.4913 40.2411 56 27.8111 56C15.3812 56 6 46.4373 6 33.9434C6 21.4496 17.4268 12 29.8568 12C42.2867 12 50 24.5036 50 36.9974Z" fill="#D9D9D9"/>
<circle cx="18.375" cy="27.5547" r="2.23438" fill="#828282"/>
<path d="M37.8399 29.0586C37.8399 29.462 35.6268 28.8438 33.586 28.8438C29.461 29.0156 30.2774 28.9297 29.8907 28.6289C29.5722 28.3812 31.5451 27.5547 33.586 27.5547C35.6268 27.5547 37.8399 28.6552 37.8399 29.0586Z" fill="#828282"/>
<path d="M39.7363 32.7201C42.3574 35.8546 39.3868 49.1678 27.5274 49.1678C12.918 49.1678 12.6602 38.2967 13.0899 34.6014C15.4961 32.324 18.3828 35.902 25.336 35.902C32.2891 35.902 36.4707 31.474 39.7363 32.7201Z" fill="#828282"/>
<path d="M32.0391 36.8215C32.0391 38.0983 31.0541 41.7344 25.7008 41.7344C21.5895 41.7344 19.1484 38.7341 19.1484 37.4573C19.1484 36.1804 22.2003 37.1105 25.7008 37.1105C29.2013 37.1105 32.0391 35.5446 32.0391 36.8215Z" fill="white"/>
<rect x="24.9507" y="36.5723" width="0.945312" height="5.68585" transform="rotate(-7.36997 24.9507 36.5723)" fill="#828282"/>
</svg>
