<svg width="32" height="32" viewBox="0 0 32 32" fill="none" xmlns="http://www.w3.org/2000/svg">
<path d="M29.3333 6.90664L14.12 22.1333L8.46663 16.48L10.3466 14.6L14.12 18.3733L27.4533 5.03997L29.3333 6.90664ZM26.3866 13.6266C26.56 14.3866 26.6666 15.1866 26.6666 16C26.6666 21.8933 21.8933 26.6666 16 26.6666C10.1066 26.6666 5.33329 21.8933 5.33329 16C5.33329 10.1066 10.1066 5.33331 16 5.33331C18.1066 5.33331 20.0533 5.94664 21.7066 6.99997L23.6266 5.07997C21.3952 3.50604 18.7306 2.66286 16 2.66664C8.63996 2.66664 2.66663 8.63997 2.66663 16C2.66663 23.36 8.63996 29.3333 16 29.3333C23.36 29.3333 29.3333 23.36 29.3333 16C29.3333 14.4133 29.04 12.8933 28.5333 11.48L26.3866 13.6266Z" fill="#343434"/>
</svg>
