<svg width="56" height="56" viewBox="0 0 56 56" fill="none" xmlns="http://www.w3.org/2000/svg">
<path d="M35 0.875C35 3.98125 32.6867 6.54883 29.6898 6.94531C29.4957 5.48516 28.8531 4.16719 27.9043 3.13633C28.9516 1.26602 30.9531 0 33.25 0H34.125C34.609 0 35 0.391016 35 0.875ZM21 2.625C21 2.14102 21.391 1.75 21.875 1.75H22.75C26.1324 1.75 28.875 4.49258 28.875 7.875V8.75V13.125C28.875 13.609 28.484 14 28 14C27.516 14 27.125 13.609 27.125 13.125V8.75C23.7426 8.75 21 6.00742 21 2.625Z" fill="#828282"/>
<path d="M50 36.9974C50 49.4913 40.2411 56 27.8111 56C15.3812 56 6 46.4373 6 33.9434C6 21.4496 17.4268 12 29.8568 12C42.2867 12 50 24.5036 50 36.9974Z" fill="#D9D9D9"/>
<ellipse cx="20.8716" cy="29.8494" rx="1.6092" ry="1.6092" fill="#828282"/>
<ellipse cx="32.6724" cy="29.8494" rx="1.6092" ry="1.6092" fill="#828282"/>
<path d="M38 39.4867C38 40.2363 33.788 37.7146 28.0998 37.7146C22.4116 37.7146 18 40.6045 18 39.4867C18 38.3689 22.4116 35 28.0998 35C33.788 35 38 37.81 38 39.4867Z" fill="#828282"/>
</svg>
