<svg width="56" height="56" viewBox="0 0 56 56" fill="none" xmlns="http://www.w3.org/2000/svg">
<path d="M52 31.2699C52 44.8996 41.3539 52 27.7939 52C14.234 52 4 41.568 4 27.9383C4 14.3087 16.4656 4 30.0256 4C43.5855 4 52 17.6403 52 31.2699Z" fill="#FFCF71"/>
<path d="M33.0349 30.6503C33.0349 32.8461 31.5897 41.4456 25.7622 41.4456C21.9314 41.4456 21.5664 32.8461 21.5664 30.6503C23.8266 28.87 22.3976 31.1425 26.2284 31.1425C31.9627 30.7229 30.3851 28.5733 33.0349 30.6503Z" fill="#FFB4B4"/>
<path d="M33.0349 30.66C33.0349 32.8558 31.5897 41.4553 25.7622 41.4553C21.9314 41.4553 21.5664 32.8558 21.5664 30.66C23.8266 28.8798 21.9314 39.8703 25.7622 39.8703C31.4965 39.4507 30.3851 28.5831 33.0349 30.66Z" fill="black"/>
<ellipse cx="20.2148" cy="20.4663" rx="2.28438" ry="2.28439" fill="black"/>
<ellipse cx="36.3446" cy="20.7926" rx="2.5641" ry="2.61073" fill="black"/>
<path d="M36.3915 30.2023C36.3915 31.1681 32.0335 31.4223 26.7171 31.4223C21.4006 31.4223 17.0908 30.6394 17.0908 29.6737C17.0908 28.7079 21.2245 29.4704 26.541 29.4704C31.8574 29.4704 36.3915 29.2366 36.3915 30.2023Z" fill="black"/>
<path d="M37.7398 34.5539C36.804 34.8022 36.0546 32.9713 35.4408 30.6581C34.827 28.3449 35.0881 26.2683 36.0239 26.02C36.9597 25.7717 36.6981 27.7664 37.3119 30.0796C37.9257 32.3929 38.6756 34.3056 37.7398 34.5539Z" fill="black"/>
<path d="M27.8135 33.3803C27.8135 35.2856 26.9305 36.8302 26.4159 36.8302C25.9013 36.8302 25.95 35.2856 25.95 33.3803C25.95 31.475 26.3672 29.9304 26.8818 29.9304C27.3964 29.9304 27.8135 31.475 27.8135 33.3803Z" fill="black"/>
</svg>
