<svg width="512" height="512" viewBox="0 0 512 512" fill="none" xmlns="http://www.w3.org/2000/svg">
<path d="M512 290.879C512 436.262 398.441 512 253.802 512C109.163 512 0 400.725 0 255.342C0 109.959 132.967 0 277.606 0C422.245 0 512 145.496 512 290.879Z" fill="#D9D9D9"/>
<ellipse cx="173.052" cy="207.702" rx="18.7252" ry="18.7252" fill="#828282"/>
<ellipse cx="310.37" cy="207.702" rx="18.7252" ry="18.7252" fill="#828282"/>
<path d="M372.364 319.845C372.364 328.568 323.352 299.224 257.162 299.224C190.972 299.224 139.637 332.852 139.637 319.845C139.637 306.838 190.972 267.636 257.162 267.636C323.352 267.636 372.364 300.335 372.364 319.845Z" fill="#828282"/>
</svg>
