<svg width="56" height="56" viewBox="0 0 56 56" fill="none" xmlns="http://www.w3.org/2000/svg">
<path d="M51 31.9974C51 44.4913 41.2411 51 28.8111 51C16.3812 51 7 41.4373 7 28.9434C7 16.4496 18.4268 7 30.8568 7C43.2867 7 51 19.5036 51 31.9974Z" fill="#FA8BAC"/>
<circle cx="19.3752" cy="22.8835" r="2.23438" fill="black"/>
<path d="M38.8401 24.3875C38.8401 24.7909 36.6271 24.1726 34.5862 24.1726C30.4612 24.3445 31.2776 24.2585 30.8909 23.9578C30.5725 23.7101 32.5454 22.8835 34.5862 22.8835C36.6271 22.8835 38.8401 23.984 38.8401 24.3875Z" fill="black"/>
<path d="M40.7366 28.049C43.3577 31.1834 40.387 44.4966 28.5276 44.4966C13.9183 44.4966 13.6605 33.6255 14.0901 29.9302C16.4964 27.6529 19.383 31.2309 26.3362 31.2309C33.2894 31.2309 37.471 26.8029 40.7366 28.049Z" fill="black"/>
<path d="M33.0393 32.1503C33.0393 33.4272 32.0543 37.0632 26.7011 37.0632C22.5898 37.0632 20.1487 34.063 20.1487 32.7861C20.1487 31.5093 23.2005 32.4393 26.7011 32.4393C30.2016 32.4393 33.0393 30.8735 33.0393 32.1503Z" fill="white"/>
<rect x="25.9509" y="31.9011" width="0.945312" height="5.68585" transform="rotate(-7.36997 25.9509 31.9011)" fill="black"/>
<path d="M44.0002 33.3289C44.0002 32.7766 44.448 32.3289 45.0002 32.3289H53.0002C53.5525 32.3289 54.0002 32.7766 54.0002 33.3289C54.0002 33.8811 53.5525 34.3289 53.0002 34.3289H45.0002C44.448 34.3289 44.0002 33.8811 44.0002 33.3289Z" fill="#DD5B82"/>
<path d="M44.0002 33.3289C44.0002 32.7766 44.448 32.3289 45.0002 32.3289H53.0002C53.5525 32.3289 54.0002 32.7766 54.0002 33.3289C54.0002 33.8811 53.5525 34.3289 53.0002 34.3289H45.0002C44.448 34.3289 44.0002 33.8811 44.0002 33.3289Z" fill="#DD5B82"/>
<path d="M44.1102 28.4224C44.0495 27.8735 44.4452 27.3792 44.9942 27.3185L52.9457 26.4387C53.4946 26.378 53.9888 26.7737 54.0496 27.3227C54.1103 27.8716 53.7145 28.3658 53.1656 28.4266L45.2141 29.3064C44.6652 29.3671 44.171 28.9713 44.1102 28.4224Z" fill="#DD5B82"/>
<path d="M44.1102 28.4224C44.0495 27.8735 44.4452 27.3792 44.9942 27.3185L52.9457 26.4387C53.4946 26.378 53.9888 26.7737 54.0496 27.3227C54.1103 27.8716 53.7145 28.3658 53.1656 28.4266L45.2141 29.3064C44.6652 29.3671 44.171 28.9713 44.1102 28.4224Z" fill="#DD5B82"/>
<path d="M12.1592 33.3289C12.1592 32.7766 11.7115 32.3289 11.1592 32.3289H3.15918C2.6069 32.3289 2.15918 32.7766 2.15918 33.3289C2.15918 33.8811 2.60689 34.3289 3.15918 34.3289H11.1592C11.7115 34.3289 12.1592 33.8811 12.1592 33.3289Z" fill="#DD5B82"/>
<path d="M12.1592 33.3289C12.1592 32.7766 11.7115 32.3289 11.1592 32.3289H3.15918C2.6069 32.3289 2.15918 32.7766 2.15918 33.3289C2.15918 33.8811 2.6069 34.3289 3.15918 34.3289H11.1592C11.7115 34.3289 12.1592 33.8811 12.1592 33.3289Z" fill="#DD5B82"/>
<path d="M12.0492 28.4224C12.1099 27.8735 11.7142 27.3792 11.1652 27.3185L3.21377 26.4387C2.66483 26.378 2.1706 26.7737 2.10986 27.3227C2.04913 27.8716 2.44489 28.3658 2.99382 28.4266L10.9453 29.3064C11.4942 29.3671 11.9885 28.9713 12.0492 28.4224Z" fill="#DD5B82"/>
<path d="M12.0492 28.4224C12.1099 27.8735 11.7142 27.3792 11.1652 27.3185L3.21377 26.4387C2.66483 26.378 2.1706 26.7737 2.10986 27.3227C2.04913 27.8716 2.44489 28.3658 2.99382 28.4266L10.9453 29.3064C11.4942 29.3671 11.9885 28.9713 12.0492 28.4224Z" fill="#DD5B82"/>
<path d="M18.9584 12.8575C20.8469 15.6646 18.2735 16.2715 15.7413 17.9751C13.2092 19.6786 11.6772 21.8336 9.78867 19.0265C7.97779 11.3849 9.12786 9.13459 9.58635 8.82614C10.2941 8.35002 12.2207 7.79217 18.9584 12.8575Z" fill="#FA8BAC"/>
<path d="M45.7385 18.0606C43.497 20.2797 42.4673 18.0033 40.4346 15.9501C38.4019 13.8968 36.136 12.8442 38.3775 10.6252C45.0881 7.66246 47.372 8.34595 47.7401 8.71773C48.3082 9.29159 49.1745 10.9784 45.7385 18.0606Z" fill="#FA8BAC"/>
</svg>
