<svg width="56" height="56" viewBox="0 0 56 56" fill="none" xmlns="http://www.w3.org/2000/svg">
<path d="M50 30.9974C50 43.4913 40.2411 50 27.8111 50C15.3812 50 6 40.4373 6 27.9434C6 15.4496 17.4268 6 29.8568 6C42.2867 6 50 18.5036 50 30.9974Z" fill="#D9D9D9"/>
<path d="M36.0032 22.4276C36.0032 22.7369 34.3069 22.263 32.7427 22.263C29.581 22.3947 30.2067 22.3288 29.9103 22.0983C29.6662 21.9084 31.1784 21.2749 32.7427 21.2749C34.3069 21.2749 36.0032 22.1184 36.0032 22.4276Z" fill="#828282"/>
<path d="M17.8562 23.0809C17.8562 23.3887 19.7552 22.917 21.5065 22.917C25.0461 23.0481 24.3456 22.9825 24.6774 22.7531C24.9506 22.5641 23.2577 21.9336 21.5065 21.9336C19.7552 21.9336 17.8562 22.7731 17.8562 23.0809Z" fill="#828282"/>
<path d="M38.391 34.6637C40.3994 32.1048 37.5304 24.5684 28.443 24.5684C17.2483 24.5684 17.6434 30.111 17.9726 33.1279C19.8165 34.9871 20.7618 34.0209 26.0898 34.0209C31.4178 34.0209 35.8886 35.6811 38.391 34.6637Z" fill="#828282"/>
<path d="M32.3802 26.5775C32.3802 27.5562 31.4935 28.969 27.3904 28.969C24.2392 28.969 22.7305 27.8527 22.7305 26.874C22.7305 25.8953 24.7074 25.4248 27.3904 25.4248C30.0735 25.4248 32.3802 25.5988 32.3802 26.5775Z" fill="white"/>
<rect width="0.724556" height="4.35819" transform="matrix(0.991738 -0.12828 0.128272 0.991739 26.8154 25.0566)" fill="#828282"/>
<ellipse cx="17.5599" cy="23.5472" rx="0.559884" ry="0.559902" fill="#828282"/>
<ellipse cx="36.3983" cy="22.6258" rx="0.559884" ry="0.559902" fill="#828282"/>
</svg>
