<svg width="56" height="56" viewBox="0 0 56 56" fill="none" xmlns="http://www.w3.org/2000/svg">
<path d="M51 31.9974C51 44.4913 41.2411 51 28.8111 51C16.3812 51 7 41.4373 7 28.9434C7 16.4496 18.4268 7 30.8568 7C43.2867 7 51 19.5036 51 31.9974Z" fill="#6B7773"/>
<path d="M44.0002 33.3289C44.0002 32.7766 44.448 32.3289 45.0002 32.3289H53.0002C53.5525 32.3289 54.0002 32.7766 54.0002 33.3289V33.3289C54.0002 33.8811 53.5525 34.3289 53.0002 34.3289H45.0002C44.448 34.3289 44.0002 33.8811 44.0002 33.3289V33.3289Z" fill="#37433F"/>
<path d="M44.0002 33.3289C44.0002 32.7766 44.448 32.3289 45.0002 32.3289H53.0002C53.5525 32.3289 54.0002 32.7766 54.0002 33.3289C54.0002 33.8811 53.5525 34.3289 53.0002 34.3289H45.0002C44.448 34.3289 44.0002 33.8811 44.0002 33.3289Z" fill="#37433F"/>
<path d="M44.1102 28.4224C44.0495 27.8735 44.4452 27.3792 44.9942 27.3185L52.9457 26.4387C53.4946 26.378 53.9888 26.7737 54.0496 27.3227V27.3227C54.1103 27.8716 53.7145 28.3658 53.1656 28.4266L45.2141 29.3064C44.6652 29.3671 44.171 28.9713 44.1102 28.4224V28.4224Z" fill="#37433F"/>
<path d="M44.1102 28.4224C44.0495 27.8735 44.4452 27.3792 44.9942 27.3185L52.9457 26.4387C53.4946 26.378 53.9888 26.7737 54.0496 27.3227C54.1103 27.8716 53.7145 28.3658 53.1656 28.4266L45.2141 29.3064C44.6652 29.3671 44.171 28.9713 44.1102 28.4224Z" fill="#37433F"/>
<path d="M12.1592 33.3289C12.1592 32.7766 11.7115 32.3289 11.1592 32.3289H3.15918C2.6069 32.3289 2.15918 32.7766 2.15918 33.3289V33.3289C2.15918 33.8811 2.60689 34.3289 3.15918 34.3289H11.1592C11.7115 34.3289 12.1592 33.8811 12.1592 33.3289V33.3289Z" fill="#37433F"/>
<path d="M12.1592 33.3289C12.1592 32.7766 11.7115 32.3289 11.1592 32.3289H3.15918C2.60689 32.3289 2.15918 32.7766 2.15918 33.3289C2.15918 33.8811 2.60689 34.3289 3.15918 34.3289H11.1592C11.7115 34.3289 12.1592 33.8811 12.1592 33.3289Z" fill="#37433F"/>
<path d="M12.0492 28.4224C12.1099 27.8735 11.7142 27.3792 11.1652 27.3185L3.21377 26.4387C2.66483 26.378 2.1706 26.7737 2.10986 27.3227V27.3227C2.04913 27.8716 2.44489 28.3658 2.99382 28.4266L10.9453 29.3064C11.4942 29.3671 11.9885 28.9713 12.0492 28.4224V28.4224Z" fill="#37433F"/>
<path d="M12.0492 28.4224C12.1099 27.8735 11.7142 27.3792 11.1652 27.3185L3.21377 26.4387C2.66483 26.378 2.1706 26.7737 2.10986 27.3227C2.04913 27.8716 2.44489 28.3658 2.99382 28.4266L10.9453 29.3064C11.4942 29.3671 11.9885 28.9713 12.0492 28.4224Z" fill="#37433F"/>
<path d="M18.9584 12.8575C20.8469 15.6646 18.2735 16.2715 15.7413 17.9751C13.2092 19.6786 11.6772 21.8336 9.78867 19.0265C7.97779 11.3849 9.12786 9.13459 9.58635 8.82614C10.2941 8.35002 12.2207 7.79217 18.9584 12.8575Z" fill="#6B7773"/>
<path d="M45.7385 18.0606C43.497 20.2797 42.4673 18.0033 40.4346 15.9501C38.4019 13.8968 36.136 12.8442 38.3775 10.6252C45.0881 7.66246 47.372 8.34595 47.7401 8.71773C48.3082 9.29159 49.1745 10.9784 45.7385 18.0606Z" fill="#6B7773"/>
<path d="M37.0032 23.1527C37.0032 23.462 35.3069 22.9881 33.7427 22.9881C30.581 23.1198 31.2067 23.0539 30.9103 22.8234C30.6662 22.6335 32.1784 22 33.7427 22C35.3069 22 37.0032 22.8435 37.0032 23.1527Z" fill="black"/>
<path d="M18.8562 23.806C18.8562 24.1138 20.7552 23.6421 22.5065 23.6421C26.0461 23.7732 25.3456 23.7076 25.6774 23.4782C25.9506 23.2892 24.2577 22.6587 22.5065 22.6587C20.7552 22.6587 18.8562 23.4982 18.8562 23.806Z" fill="black"/>
<path d="M39.391 35.3888C41.3995 32.8299 38.5304 25.2935 29.443 25.2935C18.2483 25.2935 18.6434 30.8361 18.9726 33.853C20.8165 35.7122 21.7618 34.7459 27.0898 34.7459C32.4178 34.7459 36.8886 36.4062 39.391 35.3888Z" fill="black"/>
<path d="M33.3802 27.3026C33.3802 28.2813 32.4935 29.6941 28.3904 29.6941C25.2392 29.6941 23.7305 28.5778 23.7305 27.5991C23.7305 26.6204 25.7074 26.1499 28.3904 26.1499C31.0735 26.1499 33.3802 26.3239 33.3802 27.3026Z" fill="white"/>
<rect width="0.724556" height="4.35819" transform="matrix(0.991738 -0.12828 0.128272 0.991739 27.8154 25.7817)" fill="black"/>
<ellipse cx="18.5599" cy="24.2723" rx="0.559884" ry="0.559902" fill="#51C0FF"/>
<ellipse cx="37.3983" cy="23.3509" rx="0.559884" ry="0.559902" fill="#51C0FF"/>
</svg>
