<svg width="48" height="48" viewBox="0 0 48 48" fill="none" xmlns="http://www.w3.org/2000/svg">
<path d="M44 10.36L21.18 33.2L12.7 24.72L15.52 21.9L21.18 27.56L41.18 7.56002L44 10.36ZM39.58 20.44C39.84 21.58 40 22.78 40 24C40 32.84 32.84 40 24 40C15.16 40 8 32.84 8 24C8 15.16 15.16 8.00002 24 8.00002C27.16 8.00002 30.08 8.92002 32.56 10.5L35.44 7.62002C32.0929 5.25912 28.096 3.99436 24 4.00002C12.96 4.00002 4 12.96 4 24C4 35.04 12.96 44 24 44C35.04 44 44 35.04 44 24C44 21.62 43.56 19.34 42.8 17.22L39.58 20.44Z" fill="#343434"/>
</svg>
