<svg width="33" height="32" viewBox="0 0 33 32" fill="none" xmlns="http://www.w3.org/2000/svg">
<path d="M17.8333 2.73328V6.77328C22.3533 7.42661 25.8333 11.2933 25.8333 15.9999C25.8333 17.1999 25.5933 18.3333 25.1666 19.3866L28.66 21.4266C29.4066 19.7733 29.8333 17.9333 29.8333 15.9999C29.8333 9.09328 24.5666 3.39994 17.8333 2.73328ZM16.5 25.3333C14.0246 25.3333 11.6506 24.3499 9.9003 22.5996C8.14996 20.8493 7.16663 18.4753 7.16663 15.9999C7.16663 11.2933 10.6466 7.42661 15.1666 6.77328V2.73328C8.41996 3.39994 3.16663 9.07994 3.16663 15.9999C3.16663 19.5362 4.57138 22.9275 7.07187 25.428C8.30998 26.6661 9.77984 27.6483 11.3975 28.3183C13.0152 28.9884 14.749 29.3333 16.5 29.3333C20.9 29.3333 24.8066 27.1866 27.2333 23.8799L23.7666 21.8399C22.9008 22.9365 21.7962 23.8211 20.537 24.4264C19.2778 25.0318 17.8971 25.3419 16.5 25.3333Z" fill="#343434"/>
</svg>
