<svg width="56" height="56" viewBox="0 0 56 56" fill="none" xmlns="http://www.w3.org/2000/svg">
<path d="M50.0015 32.3263C50.0015 44.8201 40.2425 51.3289 27.8126 51.3289C15.3826 51.3289 6.00146 41.7661 6.00146 29.2723C6.00146 16.7785 17.4283 7.32886 29.8582 7.32886C42.2882 7.32886 50.0015 19.8324 50.0015 32.3263Z" fill="#D9D9D9"/>
<path d="M32.6168 31.7582C32.6168 33.771 31.292 41.6539 25.9502 41.6539C22.4386 41.6539 22.104 33.771 22.104 31.7582C24.1758 30.1263 22.8659 32.2094 26.3775 32.2094C31.6339 31.8248 30.1878 29.8543 32.6168 31.7582Z" fill="#AAAAAA"/>
<path d="M32.6168 31.7672C32.6168 33.78 31.292 41.6629 25.9502 41.6629C22.4386 41.6629 22.104 33.78 22.104 31.7672C24.1758 30.1353 22.4386 40.2099 25.9502 40.2099C31.2066 39.8253 30.1878 29.8634 32.6168 31.7672Z" fill="#828282"/>
<ellipse cx="20.8648" cy="22.4229" rx="2.09401" ry="2.09402" fill="#828282"/>
<ellipse cx="35.651" cy="22.722" rx="2.35042" ry="2.39317" fill="#828282"/>
<path d="M35.6937 31.3478C35.6937 32.233 31.6989 32.4661 26.8255 32.4661C21.9521 32.4661 18.0015 31.7484 18.0015 30.8632C18.0015 29.9779 21.7907 30.6768 26.6641 30.6768C31.5375 30.6768 35.6937 30.4625 35.6937 31.3478Z" fill="#828282"/>
<path d="M36.9295 35.3367C36.0717 35.5643 35.3847 33.886 34.8221 31.7655C34.2595 29.645 34.4988 27.7416 35.3566 27.514C36.2144 27.2864 35.9746 29.1148 36.5373 31.2352C37.0999 33.3557 37.7873 35.109 36.9295 35.3367Z" fill="#828282"/>
<path d="M27.8305 34.2608C27.8305 36.0073 27.021 37.4232 26.5493 37.4232C26.0776 37.4232 26.1222 36.0073 26.1222 34.2608C26.1222 32.5142 26.5046 31.0984 26.9764 31.0984C27.4481 31.0984 27.8305 32.5142 27.8305 34.2608Z" fill="#828282"/>
<path d="M18.9584 11.8575C20.8469 14.6646 18.2735 15.2715 15.7413 16.9751C13.2092 18.6786 11.6772 20.8336 9.78867 18.0265C7.97779 10.3849 9.12786 8.13459 9.58635 7.82614C10.2941 7.35002 12.2207 6.79217 18.9584 11.8575Z" fill="#D9D9D9"/>
<path d="M45.7385 17.0606C43.497 19.2797 42.4673 17.0033 40.4346 14.9501C38.4019 12.8968 36.136 11.8442 38.3775 9.62516C45.0881 6.66246 47.372 7.34595 47.7401 7.71773C48.3082 8.29159 49.1745 9.97839 45.7385 17.0606Z" fill="#D9D9D9"/>
<path d="M44.0005 33.3289C44.0005 32.7766 44.4482 32.3289 45.0005 32.3289H53.0005C53.5528 32.3289 54.0005 32.7766 54.0005 33.3289V33.3289C54.0005 33.8811 53.5528 34.3289 53.0005 34.3289H45.0005C44.4482 34.3289 44.0005 33.8811 44.0005 33.3289V33.3289Z" fill="#AAAAAA"/>
<path d="M44.0005 33.3289C44.0005 32.7766 44.4482 32.3289 45.0005 32.3289H53.0005C53.5528 32.3289 54.0005 32.7766 54.0005 33.3289C54.0005 33.8811 53.5528 34.3289 53.0005 34.3289H45.0005C44.4482 34.3289 44.0005 33.8811 44.0005 33.3289Z" fill="#AAAAAA"/>
<path d="M44.1105 28.4224C44.0497 27.8735 44.4455 27.3792 44.9944 27.3185L52.9459 26.4387C53.4948 26.378 53.9891 26.7737 54.0498 27.3227V27.3227C54.1105 27.8716 53.7148 28.3658 53.1658 28.4266L45.2144 29.3064C44.6654 29.3671 44.1712 28.9713 44.1105 28.4224V28.4224Z" fill="#AAAAAA"/>
<path d="M44.1105 28.4224C44.0497 27.8735 44.4455 27.3792 44.9944 27.3185L52.9459 26.4387C53.4948 26.378 53.9891 26.7737 54.0498 27.3227C54.1105 27.8716 53.7148 28.3658 53.1658 28.4266L45.2144 29.3064C44.6654 29.3671 44.1712 28.9713 44.1105 28.4224Z" fill="#AAAAAA"/>
<path d="M12.1592 33.3289C12.1592 32.7766 11.7115 32.3289 11.1592 32.3289H3.15918C2.6069 32.3289 2.15918 32.7766 2.15918 33.3289V33.3289C2.15918 33.8811 2.60689 34.3289 3.15918 34.3289H11.1592C11.7115 34.3289 12.1592 33.8811 12.1592 33.3289V33.3289Z" fill="#AAAAAA"/>
<path d="M12.1592 33.3289C12.1592 32.7766 11.7115 32.3289 11.1592 32.3289H3.15918C2.60689 32.3289 2.15918 32.7766 2.15918 33.3289C2.15918 33.8811 2.60689 34.3289 3.15918 34.3289H11.1592C11.7115 34.3289 12.1592 33.8811 12.1592 33.3289Z" fill="#AAAAAA"/>
<path d="M12.0492 28.4224C12.1099 27.8735 11.7142 27.3792 11.1652 27.3185L3.21377 26.4387C2.66483 26.378 2.1706 26.7737 2.10986 27.3227V27.3227C2.04913 27.8716 2.44489 28.3658 2.99382 28.4266L10.9453 29.3064C11.4942 29.3671 11.9885 28.9713 12.0492 28.4224V28.4224Z" fill="#AAAAAA"/>
<path d="M12.0492 28.4224C12.1099 27.8735 11.7142 27.3792 11.1652 27.3185L3.21377 26.4387C2.66483 26.378 2.1706 26.7737 2.10986 27.3227C2.04913 27.8716 2.44489 28.3658 2.99382 28.4266L10.9453 29.3064C11.4942 29.3671 11.9885 28.9713 12.0492 28.4224Z" fill="#AAAAAA"/>
</svg>
