<svg width="32" height="32" viewBox="0 0 32 32" fill="none" xmlns="http://www.w3.org/2000/svg">
<path d="M25.3333 25.3334H6.66667V10.6667H25.3333M21.3333 1.33337V4.00004H10.6667V1.33337H8V4.00004H6.66667C5.18667 4.00004 4 5.18671 4 6.66671V25.3334C4 26.0406 4.28095 26.7189 4.78105 27.219C5.28115 27.7191 5.95942 28 6.66667 28H25.3333C26.0406 28 26.7189 27.7191 27.219 27.219C27.719 26.7189 28 26.0406 28 25.3334V6.66671C28 5.95946 27.719 5.28119 27.219 4.78109C26.7189 4.28099 26.0406 4.00004 25.3333 4.00004H24V1.33337" fill="#343434"/>
</svg>
