<svg width="56" height="56" viewBox="0 0 56 56" fill="none" xmlns="http://www.w3.org/2000/svg">
<path d="M50 30.9974C50 43.4913 40.2411 50 27.8111 50C15.3812 50 6 40.4373 6 27.9434C6 15.4496 17.4268 6 29.8568 6C42.2867 6 50 18.5036 50 30.9974Z" fill="#D9D9D9"/>
<path d="M26.376 30.8805C30.5842 30.5726 32.9249 33.124 30.9356 36.845C29.9124 38.7592 28.3295 40.325 25.9487 40.325C23.9319 40.325 22.9631 37.725 22.5037 35.1301C21.9837 32.1931 23.3934 30.8805 26.376 30.8805V30.8805V30.8805Z" fill="#AAAAAA"/>
<circle cx="15" cy="29" r="5" fill="#AAAAAA"/>
<circle cx="41" cy="29" r="5" fill="#AAAAAA"/>
<path d="M27.9799 38.0893C32.7732 34.2432 33.8384 35.3738 29.054 39.231C28.2131 39.909 27.1892 40.3341 25.9487 40.3341C25.3315 40.3341 24.8125 40.0906 24.3762 39.6783C19.9216 35.4689 19.7387 36.0866 25.2672 38.7319C25.4693 38.8286 25.6953 38.8811 25.9487 38.8811C26.765 38.8213 27.4299 38.5307 27.9799 38.0893Z" fill="#828282"/>
<ellipse cx="20.8633" cy="21.094" rx="2.09401" ry="2.09402" fill="#828282"/>
<ellipse cx="35.6495" cy="21.3932" rx="2.35042" ry="2.39317" fill="#828282"/>
<path d="M35.6923 30.0189C35.6923 30.9042 31.6974 31.1372 26.8241 31.1372C21.9507 31.1372 18 30.4196 18 29.5343C18 28.649 21.7892 29.3479 26.6626 29.3479C31.536 29.3479 35.6923 29.1336 35.6923 30.0189Z" fill="#828282"/>
<path d="M36.9281 34.0078C36.0703 34.2354 35.3833 32.5571 34.8206 30.4367C34.258 28.3162 34.4973 26.4127 35.3551 26.1851C36.2129 25.9575 35.9732 27.7859 36.5358 29.9064C37.0984 32.0269 37.7859 33.7802 36.9281 34.0078Z" fill="#828282"/>
<path d="M27.829 32.9319C27.829 34.6785 27.0196 36.0943 26.5479 36.0943C26.0761 36.0943 26.1208 34.6785 26.1208 32.9319C26.1208 31.1854 26.5032 29.7695 26.9749 29.7695C27.4466 29.7695 27.829 31.1854 27.829 32.9319Z" fill="#828282"/>
</svg>
