<svg width="56" height="56" viewBox="0 0 56 56" fill="none" xmlns="http://www.w3.org/2000/svg">
<path d="M50.0015 32.3263C50.0015 44.8201 40.2425 51.3289 27.8126 51.3289C15.3826 51.3289 6.00146 41.7661 6.00146 29.2723C6.00146 16.7785 17.4283 7.32886 29.8582 7.32886C42.2882 7.32886 50.0015 19.8324 50.0015 32.3263Z" fill="#D9D9D9"/>
<path d="M44.0005 33.3289C44.0005 32.7766 44.4482 32.3289 45.0005 32.3289H53.0005C53.5528 32.3289 54.0005 32.7766 54.0005 33.3289V33.3289C54.0005 33.8811 53.5528 34.3289 53.0005 34.3289H45.0005C44.4482 34.3289 44.0005 33.8811 44.0005 33.3289V33.3289Z" fill="#AAAAAA"/>
<path d="M44.0005 33.3289C44.0005 32.7766 44.4482 32.3289 45.0005 32.3289H53.0005C53.5528 32.3289 54.0005 32.7766 54.0005 33.3289C54.0005 33.8811 53.5528 34.3289 53.0005 34.3289H45.0005C44.4482 34.3289 44.0005 33.8811 44.0005 33.3289Z" fill="#AAAAAA"/>
<path d="M44.1105 28.4224C44.0497 27.8735 44.4455 27.3792 44.9944 27.3185L52.9459 26.4387C53.4948 26.378 53.9891 26.7737 54.0498 27.3227V27.3227C54.1105 27.8716 53.7148 28.3658 53.1658 28.4266L45.2144 29.3064C44.6654 29.3671 44.1712 28.9713 44.1105 28.4224V28.4224Z" fill="#AAAAAA"/>
<path d="M44.1105 28.4224C44.0497 27.8735 44.4455 27.3792 44.9944 27.3185L52.9459 26.4387C53.4948 26.378 53.9891 26.7737 54.0498 27.3227C54.1105 27.8716 53.7148 28.3658 53.1658 28.4266L45.2144 29.3064C44.6654 29.3671 44.1712 28.9713 44.1105 28.4224Z" fill="#AAAAAA"/>
<path d="M12.1592 33.3289C12.1592 32.7766 11.7115 32.3289 11.1592 32.3289H3.15918C2.6069 32.3289 2.15918 32.7766 2.15918 33.3289V33.3289C2.15918 33.8811 2.60689 34.3289 3.15918 34.3289H11.1592C11.7115 34.3289 12.1592 33.8811 12.1592 33.3289V33.3289Z" fill="#AAAAAA"/>
<path d="M12.1592 33.3289C12.1592 32.7766 11.7115 32.3289 11.1592 32.3289H3.15918C2.60689 32.3289 2.15918 32.7766 2.15918 33.3289C2.15918 33.8811 2.60689 34.3289 3.15918 34.3289H11.1592C11.7115 34.3289 12.1592 33.8811 12.1592 33.3289Z" fill="#AAAAAA"/>
<path d="M12.0492 28.4224C12.1099 27.8735 11.7142 27.3792 11.1652 27.3185L3.21377 26.4387C2.66483 26.378 2.1706 26.7737 2.10986 27.3227V27.3227C2.04913 27.8716 2.44489 28.3658 2.99382 28.4266L10.9453 29.3064C11.4942 29.3671 11.9885 28.9713 12.0492 28.4224V28.4224Z" fill="#AAAAAA"/>
<path d="M12.0492 28.4224C12.1099 27.8735 11.7142 27.3792 11.1652 27.3185L3.21377 26.4387C2.66483 26.378 2.1706 26.7737 2.10986 27.3227C2.04913 27.8716 2.44489 28.3658 2.99382 28.4266L10.9453 29.3064C11.4942 29.3671 11.9885 28.9713 12.0492 28.4224Z" fill="#AAAAAA"/>
<path d="M36.0046 23.7565C36.0046 24.0657 34.3084 23.5918 32.7441 23.5918C29.5824 23.7236 30.2082 23.6577 29.9118 23.4271C29.6677 23.2373 31.1799 22.6038 32.7441 22.6038C34.3084 22.6038 36.0046 23.4473 36.0046 23.7565Z" fill="#828282"/>
<path d="M17.8577 24.4097C17.8577 24.7175 19.7567 24.2458 21.5079 24.2458C25.0476 24.377 24.347 24.3114 24.6789 24.0819C24.9521 23.893 23.2592 23.2625 21.5079 23.2625C19.7567 23.2625 17.8577 24.102 17.8577 24.4097Z" fill="#828282"/>
<path d="M38.3925 35.9926C40.4009 33.4336 37.5319 25.8972 28.4444 25.8972C17.2498 25.8972 17.6449 31.4399 17.9741 34.4567C19.8179 36.316 20.7632 35.3497 26.0912 35.3497C31.4192 35.3497 35.8901 37.0099 38.3925 35.9926Z" fill="#828282"/>
<path d="M32.3817 27.9064C32.3817 28.8851 31.495 30.2979 27.3919 30.2979C24.2407 30.2979 22.7319 29.1815 22.7319 28.2028C22.7319 27.2241 24.7088 26.7537 27.3919 26.7537C30.0749 26.7537 32.3817 26.9277 32.3817 27.9064Z" fill="white"/>
<rect width="0.724556" height="4.35819" transform="matrix(0.991738 -0.12828 0.128272 0.991739 26.8169 26.3855)" fill="#828282"/>
<path d="M18.1212 24.8761C18.1212 25.1853 17.8706 25.436 17.5613 25.436C17.2521 25.436 17.0015 25.1853 17.0015 24.8761C17.0015 24.5668 17.2521 24.3162 17.5613 24.3162C17.8706 24.3162 18.1212 24.5668 18.1212 24.8761Z" fill="#828282"/>
<ellipse cx="36.3997" cy="23.9547" rx="0.559884" ry="0.559902" fill="#828282"/>
<path d="M19.9584 12.8577C21.8469 15.6648 19.2735 16.2718 16.7413 17.9753C14.2092 19.6788 12.6772 21.8338 10.7887 19.0267C8.97779 11.3852 10.1279 9.13484 10.5864 8.82639C11.2941 8.35026 13.2207 7.79241 19.9584 12.8577Z" fill="#D9D9D9"/>
<path d="M46.7385 18.0606C44.497 20.2797 43.4673 18.0033 41.4346 15.9501C39.4019 13.8968 37.136 12.8442 39.3775 10.6252C46.0881 7.66246 48.372 8.34595 48.7401 8.71773C49.3082 9.29159 50.1745 10.9784 46.7385 18.0606Z" fill="#D9D9D9"/>
</svg>
