<svg width="56" height="56" viewBox="0 0 56 56" fill="none" xmlns="http://www.w3.org/2000/svg">
<path d="M52 31.2699C52 44.8996 41.3539 52 27.7939 52C14.234 52 4 41.568 4 27.9383C4 14.3087 16.4656 4 30.0256 4C43.5855 4 52 17.6403 52 31.2699Z" fill="#F4F1D7"/>
<ellipse cx="20.224" cy="23.472" rx="1.75549" ry="1.75549" fill="black"/>
<ellipse cx="33.0975" cy="23.472" rx="1.75549" ry="1.75549" fill="black"/>
<path d="M38.3636 33.1944C38.3636 33.9793 33.5356 34.6155 27.5799 34.6155C21.6242 34.6155 16.5454 33.6706 16.5454 32.5002C16.5454 31.3299 21.6242 31.7733 27.5799 31.7733C33.5356 31.7733 38.3636 31.4389 38.3636 33.1944Z" fill="black"/>
</svg>
