<svg width="512" height="512" viewBox="0 0 512 512" fill="none" xmlns="http://www.w3.org/2000/svg">
<path d="M512 290.879C512 436.262 398.441 512 253.802 512C109.163 512 0 400.725 0 255.342C0 109.959 132.967 0 277.606 0C422.245 0 512 145.496 512 290.879Z" fill="#FA8BAC"/>
<circle cx="144" cy="181" r="26" fill="black"/>
<path d="M370.498 198.5C370.498 203.194 344.746 196 320.998 196C272.998 198 282.498 197 277.998 193.5C274.292 190.618 297.249 181 320.998 181C344.746 181 370.498 193.806 370.498 198.5Z" fill="black"/>
<path d="M392.571 241.107C423.071 277.581 388.503 432.498 250.503 432.498C80.5034 432.498 77.5034 305.998 82.5032 262.998C110.503 236.498 144.093 278.133 225.003 278.133C305.913 278.133 354.571 226.607 392.571 241.107Z" fill="black"/>
<path d="M303 288.832C303 303.69 291.538 346 229.246 346C181.405 346 153 311.088 153 296.23C153 281.372 188.513 292.195 229.246 292.195C269.979 292.195 303 273.974 303 288.832Z" fill="white"/>
<rect x="220.517" y="285.932" width="11" height="66.1626" transform="rotate(-7.36997 220.517 285.932)" fill="black"/>
</svg>
