<svg width="56" height="56" viewBox="0 0 56 56" fill="none" xmlns="http://www.w3.org/2000/svg">
<path d="M50.0015 32.3263C50.0015 44.8201 40.2425 51.3289 27.8126 51.3289C15.3826 51.3289 6.00146 41.7661 6.00146 29.2723C6.00146 16.7785 17.4283 7.32886 29.8582 7.32886C42.2882 7.32886 50.0015 19.8324 50.0015 32.3263Z" fill="#D9D9D9"/>
<path d="M44.0005 33.3289C44.0005 32.7766 44.4482 32.3289 45.0005 32.3289H53.0005C53.5528 32.3289 54.0005 32.7766 54.0005 33.3289V33.3289C54.0005 33.8811 53.5528 34.3289 53.0005 34.3289H45.0005C44.4482 34.3289 44.0005 33.8811 44.0005 33.3289V33.3289Z" fill="#AAAAAA"/>
<path d="M44.0005 33.3289C44.0005 32.7766 44.4482 32.3289 45.0005 32.3289H53.0005C53.5528 32.3289 54.0005 32.7766 54.0005 33.3289C54.0005 33.8811 53.5528 34.3289 53.0005 34.3289H45.0005C44.4482 34.3289 44.0005 33.8811 44.0005 33.3289Z" fill="#AAAAAA"/>
<path d="M44.1105 28.4224C44.0497 27.8735 44.4455 27.3792 44.9944 27.3185L52.9459 26.4387C53.4948 26.378 53.9891 26.7737 54.0498 27.3227V27.3227C54.1105 27.8716 53.7148 28.3658 53.1658 28.4266L45.2144 29.3064C44.6654 29.3671 44.1712 28.9713 44.1105 28.4224V28.4224Z" fill="#AAAAAA"/>
<path d="M44.1105 28.4224C44.0497 27.8735 44.4455 27.3792 44.9944 27.3185L52.9459 26.4387C53.4948 26.378 53.9891 26.7737 54.0498 27.3227C54.1105 27.8716 53.7148 28.3658 53.1658 28.4266L45.2144 29.3064C44.6654 29.3671 44.1712 28.9713 44.1105 28.4224Z" fill="#AAAAAA"/>
<path d="M12.1592 33.3289C12.1592 32.7766 11.7115 32.3289 11.1592 32.3289H3.15918C2.6069 32.3289 2.15918 32.7766 2.15918 33.3289V33.3289C2.15918 33.8811 2.60689 34.3289 3.15918 34.3289H11.1592C11.7115 34.3289 12.1592 33.8811 12.1592 33.3289V33.3289Z" fill="#AAAAAA"/>
<path d="M12.1592 33.3289C12.1592 32.7766 11.7115 32.3289 11.1592 32.3289H3.15918C2.60689 32.3289 2.15918 32.7766 2.15918 33.3289C2.15918 33.8811 2.60689 34.3289 3.15918 34.3289H11.1592C11.7115 34.3289 12.1592 33.8811 12.1592 33.3289Z" fill="#AAAAAA"/>
<path d="M12.0492 28.4224C12.1099 27.8735 11.7142 27.3792 11.1652 27.3185L3.21377 26.4387C2.66483 26.378 2.1706 26.7737 2.10986 27.3227V27.3227C2.04913 27.8716 2.44489 28.3658 2.99382 28.4266L10.9453 29.3064C11.4942 29.3671 11.9885 28.9713 12.0492 28.4224V28.4224Z" fill="#AAAAAA"/>
<path d="M12.0492 28.4224C12.1099 27.8735 11.7142 27.3792 11.1652 27.3185L3.21377 26.4387C2.66483 26.378 2.1706 26.7737 2.10986 27.3227C2.04913 27.8716 2.44489 28.3658 2.99382 28.4266L10.9453 29.3064C11.4942 29.3671 11.9885 28.9713 12.0492 28.4224Z" fill="#AAAAAA"/>
<ellipse cx="20.8731" cy="25.1783" rx="1.6092" ry="1.6092" fill="#828282"/>
<ellipse cx="32.6739" cy="25.1783" rx="1.6092" ry="1.6092" fill="#828282"/>
<path d="M37.5015 34.0904C37.5015 34.8098 33.0758 35.3931 27.6164 35.3931C22.157 35.3931 17.5015 34.5268 17.5015 33.454C17.5015 32.3812 22.157 32.7877 27.6164 32.7877C33.0758 32.7877 37.5015 32.4812 37.5015 34.0904Z" fill="#828282"/>
<path d="M18.9584 11.8577C20.8469 14.6648 18.2735 15.2718 15.7413 16.9753C13.2092 18.6788 11.6772 20.8338 9.78867 18.0267C7.97779 10.3852 9.12786 8.13484 9.58635 7.82639C10.2941 7.35026 12.2207 6.79241 18.9584 11.8577Z" fill="#D9D9D9"/>
<path d="M45.7385 17.0606C43.497 19.2797 42.4673 17.0033 40.4346 14.9501C38.4019 12.8968 36.136 11.8442 38.3775 9.62516C45.0881 6.66246 47.372 7.34595 47.7401 7.71773C48.3082 8.29159 49.1745 9.97839 45.7385 17.0606Z" fill="#D9D9D9"/>
</svg>
