<svg width="148" height="148" viewBox="0 0 148 148" fill="none" xmlns="http://www.w3.org/2000/svg">
<g filter="url(#filter0_d_9_473)">
<path d="M138 87.005C138 126.066 108.303 138 73.7517 138C39.2007 138 10 119.147 10 80.0861C10 41.0248 32.4422 18.3283 70.1769 10C104.728 10 138 47.9437 138 87.005Z" fill="white"/>
<circle cx="52.75" cy="31.5" r="5.25" fill="black"/>
<circle cx="88.75" cy="36.75" r="5.25" fill="black"/>
<path d="M71 55.7877C71 58.1141 69.5449 60 67.75 60C65.9551 60 64.5 59.2567 64.5 55.7877C64.5 52.3188 65.9551 51.5754 67.75 51.5754C69.5449 51.5754 71 50.5843 71 55.7877Z" fill="black"/>
</g>
<defs>
<filter id="filter0_d_9_473" x="0" y="0" width="148" height="148" filterUnits="userSpaceOnUse" color-interpolation-filters="sRGB">
<feFlood flood-opacity="0" result="BackgroundImageFix"/>
<feColorMatrix in="SourceAlpha" type="matrix" values="0 0 0 0 0 0 0 0 0 0 0 0 0 0 0 0 0 0 127 0" result="hardAlpha"/>
<feOffset/>
<feGaussianBlur stdDeviation="5"/>
<feComposite in2="hardAlpha" operator="out"/>
<feColorMatrix type="matrix" values="0 0 0 0 0 0 0 0 0 0 0 0 0 0 0 0 0 0 0.25 0"/>
<feBlend mode="normal" in2="BackgroundImageFix" result="effect1_dropShadow_9_473"/>
<feBlend mode="normal" in="SourceGraphic" in2="effect1_dropShadow_9_473" result="shape"/>
</filter>
</defs>
</svg>
