<svg width="56" height="56" viewBox="0 0 56 56" fill="none" xmlns="http://www.w3.org/2000/svg">
<path d="M52 31.2699C52 44.8996 41.3539 52 27.7939 52C14.234 52 4 41.568 4 27.9383C4 14.3087 16.4656 4 30.0256 4C43.5855 4 52 17.6403 52 31.2699Z" fill="#4F9568"/>
<ellipse cx="20.224" cy="23.472" rx="1.75549" ry="1.75549" fill="black"/>
<ellipse cx="33.0975" cy="23.472" rx="1.75549" ry="1.75549" fill="black"/>
<path d="M38.909 33.9854C38.909 34.8031 34.3141 32.0522 28.1088 32.0522C21.9035 32.0522 17.0908 35.2048 17.0908 33.9854C17.0908 32.766 21.9035 29.0908 28.1088 29.0908C34.3141 29.0908 38.909 32.1563 38.909 33.9854Z" fill="black"/>
</svg>
