<svg width="56" height="56" viewBox="0 0 56 56" fill="none" xmlns="http://www.w3.org/2000/svg">
<path d="M50.002 32.3263C50.002 44.8201 40.243 51.3289 27.8131 51.3289C15.3831 51.3289 6.00195 41.7661 6.00195 29.2723C6.00195 16.7785 17.4288 7.32886 29.8587 7.32886C42.2887 7.32886 50.002 19.8324 50.002 32.3263Z" fill="#D9D9D9"/>
<ellipse cx="20.8736" cy="25.1783" rx="1.6092" ry="1.6092" fill="#828282"/>
<ellipse cx="32.6744" cy="25.1783" rx="1.6092" ry="1.6092" fill="#828282"/>
<path d="M44.0005 33.3289C44.0005 32.7766 44.4482 32.3289 45.0005 32.3289H53.0005C53.5528 32.3289 54.0005 32.7766 54.0005 33.3289V33.3289C54.0005 33.8811 53.5528 34.3289 53.0005 34.3289H45.0005C44.4482 34.3289 44.0005 33.8811 44.0005 33.3289V33.3289Z" fill="#AAAAAA"/>
<path d="M44.0005 33.3289C44.0005 32.7766 44.4482 32.3289 45.0005 32.3289H53.0005C53.5528 32.3289 54.0005 32.7766 54.0005 33.3289C54.0005 33.8811 53.5528 34.3289 53.0005 34.3289H45.0005C44.4482 34.3289 44.0005 33.8811 44.0005 33.3289Z" fill="#AAAAAA"/>
<path d="M44.1105 28.4224C44.0497 27.8735 44.4455 27.3792 44.9944 27.3185L52.9459 26.4387C53.4948 26.378 53.9891 26.7737 54.0498 27.3227V27.3227C54.1105 27.8716 53.7148 28.3658 53.1658 28.4266L45.2144 29.3064C44.6654 29.3671 44.1712 28.9713 44.1105 28.4224V28.4224Z" fill="#AAAAAA"/>
<path d="M44.1105 28.4224C44.0497 27.8735 44.4455 27.3792 44.9944 27.3185L52.9459 26.4387C53.4948 26.378 53.9891 26.7737 54.0498 27.3227C54.1105 27.8716 53.7148 28.3658 53.1658 28.4266L45.2144 29.3064C44.6654 29.3671 44.1712 28.9713 44.1105 28.4224Z" fill="#AAAAAA"/>
<path d="M12.1592 33.3289C12.1592 32.7766 11.7115 32.3289 11.1592 32.3289H3.15918C2.6069 32.3289 2.15918 32.7766 2.15918 33.3289V33.3289C2.15918 33.8811 2.60689 34.3289 3.15918 34.3289H11.1592C11.7115 34.3289 12.1592 33.8811 12.1592 33.3289V33.3289Z" fill="#AAAAAA"/>
<path d="M12.1592 33.3289C12.1592 32.7766 11.7115 32.3289 11.1592 32.3289H3.15918C2.60689 32.3289 2.15918 32.7766 2.15918 33.3289C2.15918 33.8811 2.60689 34.3289 3.15918 34.3289H11.1592C11.7115 34.3289 12.1592 33.8811 12.1592 33.3289Z" fill="#AAAAAA"/>
<path d="M12.0492 28.4224C12.1099 27.8735 11.7142 27.3792 11.1652 27.3185L3.21377 26.4387C2.66483 26.378 2.1706 26.7737 2.10986 27.3227V27.3227C2.04913 27.8716 2.44489 28.3658 2.99382 28.4266L10.9453 29.3064C11.4942 29.3671 11.9885 28.9713 12.0492 28.4224V28.4224Z" fill="#AAAAAA"/>
<path d="M12.0492 28.4224C12.1099 27.8735 11.7142 27.3792 11.1652 27.3185L3.21377 26.4387C2.66483 26.378 2.1706 26.7737 2.10986 27.3227C2.04913 27.8716 2.44489 28.3658 2.99382 28.4266L10.9453 29.3064C11.4942 29.3671 11.9885 28.9713 12.0492 28.4224Z" fill="#AAAAAA"/>
<path d="M38.002 34.8155C38.002 35.5652 33.79 33.0434 28.1018 33.0434C22.4136 33.0434 18.002 35.9333 18.002 34.8155C18.002 33.6978 22.4136 30.3289 28.1018 30.3289C33.79 30.3289 38.002 33.1389 38.002 34.8155Z" fill="#828282"/>
<path d="M18.9589 12.8575C20.8474 15.6646 18.274 16.2715 15.7418 17.9751C13.2097 19.6786 11.6777 21.8336 9.78916 19.0265C7.97828 11.3849 9.12835 9.13459 9.58684 8.82614C10.2946 8.35002 12.2212 7.79217 18.9589 12.8575Z" fill="#D9D9D9"/>
<path d="M45.739 18.0606C43.4975 20.2797 42.4678 18.0033 40.4351 15.9501C38.4024 13.8968 36.1365 12.8442 38.378 10.6252C45.0886 7.66246 47.3725 8.34595 47.7406 8.71773C48.3087 9.29159 49.175 10.9784 45.739 18.0606Z" fill="#D9D9D9"/>
</svg>
