<svg width="173" height="136" viewBox="0 0 173 136" fill="none" xmlns="http://www.w3.org/2000/svg">
<path d="M55.5755 21.0825C32.1597 37.2902 26.3626 69.4308 42.5966 92.8845C58.8305 116.338 90.9537 122.231 114.369 106.024C125.859 98.0709 133.092 86.2776 135.589 73.5564C135.894 71.9712 135.143 70.3596 133.723 69.6041C132.302 68.8485 130.535 69.0904 129.384 70.2235C127.749 71.8319 125.971 73.3149 124.018 74.6666C105.646 87.3835 80.4016 82.7581 67.6454 64.3288C59.01 51.8531 58.3158 36.2644 64.4583 23.5436C65.1555 22.0794 64.8246 20.3454 63.6478 19.2529C62.471 18.1605 60.702 17.9547 59.296 18.7596C58.0359 19.4916 56.8021 20.2615 55.5886 21.1014L55.5755 21.0825Z" fill="#FFCF71"/>
<rect x="72" y="8.95166" width="71" height="16" rx="8" fill="#AAAAAA"/>
<rect x="102" y="27.9517" width="71" height="16" rx="8" fill="#AAAAAA"/>
<rect y="69.9517" width="56" height="16" rx="8" fill="#AAAAAA"/>
</svg>
