<svg width="56" height="56" viewBox="0 0 56 56" fill="none" xmlns="http://www.w3.org/2000/svg">
<path d="M50 30.9974C50 43.4913 40.2411 50 27.8111 50C15.3812 50 6 40.4373 6 27.9434C6 15.4496 17.4268 6 29.8568 6C42.2867 6 50 18.5036 50 30.9974Z" fill="#D9D9D9"/>
<circle cx="18.375" cy="21.5547" r="2.23438" fill="#828282"/>
<path d="M37.8399 23.0586C37.8399 23.462 35.6268 22.8437 33.586 22.8437C29.461 23.0156 30.2774 22.9297 29.8907 22.6289C29.5722 22.3812 31.5451 21.5547 33.586 21.5547C35.6268 21.5547 37.8399 22.6552 37.8399 23.0586Z" fill="#828282"/>
<path d="M39.7363 26.7201C42.3574 29.8546 39.3868 43.1678 27.5274 43.1678C12.918 43.1678 12.6602 32.2967 13.0899 28.6014C15.4961 26.324 18.3828 29.902 25.336 29.902C32.2891 29.902 36.4707 25.474 39.7363 26.7201Z" fill="#828282"/>
<path d="M32.0391 30.8215C32.0391 32.0983 31.0541 35.7344 25.7008 35.7344C21.5895 35.7344 19.1484 32.7341 19.1484 31.4573C19.1484 30.1804 22.2003 31.1105 25.7008 31.1105C29.2013 31.1105 32.0391 29.5446 32.0391 30.8215Z" fill="white"/>
<rect x="24.9507" y="30.5723" width="0.945313" height="5.68585" transform="rotate(-7.36997 24.9507 30.5723)" fill="#828282"/>
</svg>
