<svg width="56" height="56" viewBox="0 0 56 56" fill="none" xmlns="http://www.w3.org/2000/svg">
<path d="M50 30.9974C50 43.4913 40.2411 50 27.8111 50C15.3812 50 6 40.4373 6 27.9434C6 15.4496 17.4268 6 29.8568 6C42.2867 6 50 18.5036 50 30.9974Z" fill="#4F9568"/>
<ellipse cx="20.8716" cy="23.8494" rx="1.6092" ry="1.6092" fill="black"/>
<ellipse cx="32.6724" cy="23.8494" rx="1.6092" ry="1.6092" fill="black"/>
<circle cx="16" cy="30" r="5" fill="#386749"/>
<circle cx="41" cy="30" r="5" fill="#386749"/>
<path d="M38 33.4867C38 34.2363 33.788 31.7146 28.0998 31.7146C22.4116 31.7146 18 34.6045 18 33.4867C18 32.3689 22.4116 29 28.0998 29C33.788 29 38 31.81 38 33.4867Z" fill="black"/>
</svg>
