<svg width="380" height="128" viewBox="0 0 380 128" fill="none" xmlns="http://www.w3.org/2000/svg">
<g clip-path="url(#clip0_634_1104)">
<rect width="380" height="128" fill="#FFD3E0"/>
<g filter="url(#filter0_d_634_1104)">
<path d="M144 79.0801C144 94.3384 132.4 99 118.903 99C105.407 99 94 91.6357 94 76.3774C94 61.1191 102.766 52.2533 117.507 49C131.003 49 144 63.8218 144 79.0801Z" fill="white"/>
<circle cx="117.051" cy="63.0508" r="2.05078" fill="black"/>
<circle cx="131.113" cy="65.1016" r="2.05078" fill="black"/>
<path d="M124.18 72.5382C124.18 73.4469 123.611 74.1836 122.91 74.1836C122.209 74.1836 121.641 73.8932 121.641 72.5382C121.641 71.1831 122.209 70.8927 122.91 70.8927C123.611 70.8927 124.18 70.5056 124.18 72.5382Z" fill="black"/>
</g>
<ellipse cx="435" cy="130.5" rx="274" ry="233.5" fill="#FEB6CB"/>
<path d="M94 80.5802C94 100.862 78.4744 111.429 58.6995 111.429C38.9246 111.429 24 95.9047 24 75.6225C24 55.3403 42.1791 40 61.954 40C81.7289 40 94 60.298 94 80.5802Z" fill="#FA8BAC"/>
<ellipse cx="46.9461" cy="60.9655" rx="3.62723" ry="3.62723" fill="#222222"/>
<path d="M78.5452 63.407C78.5452 64.0619 74.9526 63.0582 71.6395 63.0582C64.9431 63.3372 66.2684 63.1977 65.6406 62.7094C65.1237 62.3074 68.3264 60.9656 71.6395 60.9656C74.9526 60.9656 78.5452 62.7521 78.5452 63.407Z" fill="#222222"/>
<path d="M81.6244 69.351C85.8794 74.4394 81.0569 96.0517 61.8046 96.0517C38.0881 96.0517 37.6696 78.4038 38.3671 72.4049C42.2734 68.708 46.9595 74.5164 58.2471 74.5164C69.5348 74.5164 76.323 67.3281 81.6244 69.351Z" fill="#222222"/>
<path d="M69.1285 76.009C69.1285 78.0818 67.5295 83.9845 58.8391 83.9845C52.1649 83.9845 48.2021 79.114 48.2021 77.0411C48.2021 74.9683 53.1565 76.4782 58.8391 76.4782C64.5218 76.4782 69.1285 73.9362 69.1285 76.009Z" fill="white"/>
<rect x="57.6216" y="75.6047" width="1.5346" height="9.23028" transform="rotate(-7.36997 57.6216 75.6047)" fill="#222222"/>
<g clip-path="url(#clip1_634_1104)">
<path d="M88.9314 43.2081L102.365 48.625C102.923 48.8497 103.546 48.8543 104.109 48.6373C104.673 48.4204 105.132 47.9986 105.394 47.4578L111.72 34.4272C112.786 32.2394 112.89 29.7065 112.016 27.4374L111.894 27.1203C110.421 23.2985 106.404 21.1038 102.395 21.9266C99.7415 22.4717 97.5184 24.2639 96.4228 26.7331L96.0195 27.642L95.1106 27.2387C92.6414 26.1431 89.7906 26.306 87.4575 27.6822C83.9326 29.7625 82.4271 34.085 83.8998 37.9069L84.0219 38.224C84.8962 40.493 86.673 42.3012 88.9314 43.2081Z" fill="#E7537F"/>
</g>
<g clip-path="url(#clip2_634_1104)">
<path d="M137.742 78.0704L142.293 87.6683C142.482 88.0666 142.816 88.379 143.228 88.5419C143.639 88.7048 144.096 88.7056 144.507 88.5445L154.394 84.6626C156.056 84.0128 157.371 82.6987 158.028 81.0407L158.12 80.809C159.225 78.0164 158.15 74.8365 155.579 73.2873C153.878 72.2625 151.788 72.1239 149.97 72.9107L149.301 73.2003L149.011 72.5311C148.225 70.7131 146.607 69.3839 144.664 68.9663C141.73 68.336 138.77 69.9185 137.664 72.7111L137.572 72.9428C136.916 74.6008 136.975 76.459 137.742 78.0704Z" fill="#E7537F"/>
</g>
<path d="M252.504 59.136H265.928V60.816H252.504V59.136ZM258.104 59.984H260.216V65.424H258.104V59.984ZM254.04 51.168H256.152V52.848H262.232V51.168H264.344V57.728H254.04V51.168ZM256.152 54.512V56.032H262.232V54.512H256.152ZM275.415 54.192H278.231V55.92H275.415V54.192ZM277.655 50.608H279.783V59.408H277.655V50.608ZM274.759 59.728C277.895 59.728 279.831 60.8 279.831 62.592C279.831 64.4 277.895 65.44 274.759 65.44C271.623 65.44 269.687 64.4 269.687 62.592C269.687 60.8 271.623 59.728 274.759 59.728ZM274.759 61.344C272.839 61.344 271.815 61.744 271.815 62.592C271.815 63.424 272.839 63.824 274.759 63.824C276.695 63.824 277.719 63.424 277.719 62.592C277.719 61.744 276.695 61.344 274.759 61.344ZM270.807 52.096H272.535V53.024C272.535 55.856 271.223 58.448 268.391 59.408L267.303 57.728C269.751 56.896 270.807 54.928 270.807 53.024V52.096ZM271.255 52.096H272.967V53.024C272.967 54.768 273.975 56.576 276.311 57.36L275.271 59.04C272.519 58.128 271.255 55.664 271.255 53.024V52.096ZM267.879 51.504H275.847V53.2H267.879V51.504ZM285.686 52.08H287.414V53.024C287.414 55.808 286.102 58.384 283.254 59.312L282.182 57.632C284.63 56.832 285.686 54.88 285.686 53.024V52.08ZM286.134 52.08H287.846V53.024C287.846 54.752 288.854 56.576 291.19 57.36L290.15 59.024C287.398 58.112 286.134 55.648 286.134 53.024V52.08ZM290.326 54.144H293.142V55.872H290.326V54.144ZM282.758 51.424H290.726V53.104H282.758V51.424ZM284.566 60.096H294.662V65.424H292.534V61.792H284.566V60.096ZM292.534 50.608H294.662V59.424H292.534V50.608ZM307.317 50.624H309.461V61.264H307.317V50.624ZM299.589 63.472H309.829V65.168H299.589V63.472ZM299.589 60.192H301.717V64.16H299.589V60.192ZM301.397 51.552C303.669 51.552 305.413 53.12 305.413 55.312C305.413 57.488 303.669 59.072 301.397 59.072C299.125 59.072 297.365 57.488 297.365 55.312C297.365 53.12 299.125 51.552 301.397 51.552ZM301.397 53.392C300.293 53.392 299.445 54.096 299.445 55.312C299.445 56.512 300.293 57.216 301.397 57.216C302.485 57.216 303.333 56.512 303.333 55.312C303.333 54.096 302.485 53.392 301.397 53.392ZM319.492 51.744H321.22V53.904C321.22 57.568 319.94 61.008 317.14 62.384L315.86 60.672C318.356 59.504 319.492 56.656 319.492 53.904V51.744ZM319.924 51.744H321.62V53.904C321.62 56.56 322.676 59.264 325.044 60.416L323.764 62.112C321.092 60.752 319.924 57.456 319.924 53.904V51.744ZM325.636 50.608H327.78V65.424H325.636V50.608ZM327.3 56.304H329.924V58.08H327.3V56.304ZM332.418 51.856H341.81V53.568H332.418V51.856ZM331.058 61.92H344.45V63.648H331.058V61.92ZM335.794 56.832H337.922V62.768H335.794V56.832ZM341.042 51.856H343.17V53.28C343.17 55.136 343.17 57.216 342.578 60.384L340.45 60.144C341.042 57.2 341.042 55.056 341.042 53.28V51.856ZM345.921 57.248H359.345V58.8H345.921V57.248ZM347.425 59.536H357.745V63.056H349.569V64.32H347.457V61.712H355.649V60.976H347.425V59.536ZM347.457 63.872H358.161V65.312H347.457V63.872ZM347.569 50.864H357.713V54.352H349.697V55.568H347.585V53.024H355.617V52.288H347.569V50.864ZM347.585 55.12H357.985V56.56H347.585V55.12ZM220.25 71.296H229.642V72.992H220.25V71.296ZM218.602 76.688H232.01V78.368H218.602V76.688ZM228.362 71.296H230.458V72.48C230.458 73.776 230.458 75.264 229.994 77.216L227.898 77.008C228.362 75.104 228.362 73.744 228.362 72.48V71.296ZM225.306 79.616C228.506 79.616 230.506 80.688 230.506 82.528C230.506 84.368 228.506 85.424 225.306 85.424C222.09 85.424 220.09 84.368 220.09 82.528C220.09 80.688 222.09 79.616 225.306 79.616ZM225.306 81.328C223.306 81.328 222.234 81.696 222.234 82.528C222.234 83.344 223.306 83.728 225.306 83.728C227.306 83.728 228.362 83.344 228.362 82.528C228.362 81.696 227.306 81.328 225.306 81.328ZM241.513 74.192H244.329V75.92H241.513V74.192ZM243.753 70.608H245.881V79.408H243.753V70.608ZM240.857 79.728C243.993 79.728 245.929 80.8 245.929 82.592C245.929 84.4 243.993 85.44 240.857 85.44C237.721 85.44 235.785 84.4 235.785 82.592C235.785 80.8 237.721 79.728 240.857 79.728ZM240.857 81.344C238.937 81.344 237.913 81.744 237.913 82.592C237.913 83.424 238.937 83.824 240.857 83.824C242.793 83.824 243.817 83.424 243.817 82.592C243.817 81.744 242.793 81.344 240.857 81.344ZM236.905 72.096H238.633V73.024C238.633 75.856 237.321 78.448 234.489 79.408L233.401 77.728C235.849 76.896 236.905 74.928 236.905 73.024V72.096ZM237.353 72.096H239.065V73.024C239.065 74.768 240.073 76.576 242.409 77.36L241.369 79.04C238.617 78.128 237.353 75.664 237.353 73.024V72.096ZM233.977 71.504H241.945V73.2H233.977V71.504ZM251.784 72.08H253.512V73.024C253.512 75.808 252.2 78.384 249.352 79.312L248.28 77.632C250.728 76.832 251.784 74.88 251.784 73.024V72.08ZM252.232 72.08H253.944V73.024C253.944 74.752 254.952 76.576 257.288 77.36L256.248 79.024C253.496 78.112 252.232 75.648 252.232 73.024V72.08ZM256.424 74.144H259.24V75.872H256.424V74.144ZM248.856 71.424H256.824V73.104H248.856V71.424ZM250.664 80.096H260.76V85.424H258.632V81.792H250.664V80.096ZM258.632 70.608H260.76V79.424H258.632V70.608ZM269.943 71.344C273.063 71.344 275.479 73.056 275.479 75.632C275.479 78.224 273.063 79.92 269.943 79.92C266.823 79.92 264.407 78.224 264.407 75.632C264.407 73.056 266.823 71.344 269.943 71.344ZM269.943 73.072C267.927 73.072 266.487 74.032 266.487 75.632C266.487 77.216 267.927 78.176 269.943 78.176C271.959 78.176 273.399 77.216 273.399 75.632C273.399 74.032 271.959 73.072 269.943 73.072ZM263.255 81.904H276.663V83.648H263.255V81.904ZM278.133 82.064H291.541V83.792H278.133V82.064ZM283.749 79.264H285.877V82.768H283.749V79.264ZM279.637 71.568H290.037V76.496H281.781V78.992H279.669V74.832H287.925V73.248H279.637V71.568ZM279.669 78.144H290.373V79.856H279.669V78.144ZM306.613 70.608H308.757V85.424H306.613V70.608ZM308.277 76.128H310.901V77.888H308.277V76.128ZM297.589 71.776H299.701V75.376H302.677V71.776H304.789V82H297.589V71.776ZM299.701 77.024V80.288H302.677V77.024H299.701ZM312.019 77.488H325.411V79.216H312.019V77.488ZM317.587 78.96H319.715V85.408H317.587V78.96ZM313.075 71.504H316.531V73.184H313.075V71.504ZM315.843 71.504H317.939V72.448C317.939 73.76 317.939 75.6 317.203 78.208L315.123 77.872C315.843 75.408 315.843 73.728 315.843 72.448V71.504ZM318.947 71.504H322.819V73.184H318.947V71.504ZM321.859 71.504H323.955V72.544C323.955 73.888 323.955 75.696 323.379 78.192L321.299 77.888C321.859 75.52 321.859 73.856 321.859 72.544V71.504ZM328.562 74.608H338.834V76.288H328.562V74.608ZM326.898 77.824H340.322V79.52H326.898V77.824ZM328.562 71.136H330.674V75.44H328.562V71.136ZM328.418 83.408H338.914V85.104H328.418V83.408ZM328.418 80.704H330.546V83.856H328.418V80.704ZM346.545 71.36H348.657V73.232H351.473V71.36H353.553V78.288H346.545V71.36ZM348.657 74.848V76.592H351.473V74.848H348.657ZM353.073 73.984H356.673V75.696H353.073V73.984ZM356.193 70.608H358.321V78.72H356.193V70.608ZM348.481 79.344H350.593V80.672H356.209V79.344H358.321V85.248H348.481V79.344ZM350.593 82.304V83.552H356.209V82.304H350.593Z" fill="#550F24"/>
</g>
<defs>
<filter id="filter0_d_634_1104" x="91.2222" y="47.3333" width="55.5556" height="61.5556" filterUnits="userSpaceOnUse" color-interpolation-filters="sRGB">
<feFlood flood-opacity="0" result="BackgroundImageFix"/>
<feColorMatrix in="SourceAlpha" type="matrix" values="0 0 0 0 0 0 0 0 0 0 0 0 0 0 0 0 0 0 127 0" result="hardAlpha"/>
<feOffset dy="1.11111"/>
<feGaussianBlur stdDeviation="1.38889"/>
<feComposite in2="hardAlpha" operator="out"/>
<feColorMatrix type="matrix" values="0 0 0 0 0 0 0 0 0 0 0 0 0 0 0 0 0 0 0.25 0"/>
<feBlend mode="normal" in2="BackgroundImageFix" result="effect1_dropShadow_634_1104"/>
<feBlend mode="normal" in="SourceGraphic" in2="effect1_dropShadow_634_1104" result="shape"/>
</filter>
<clipPath id="clip0_634_1104">
<rect width="380" height="128" fill="white"/>
</clipPath>
<clipPath id="clip1_634_1104">
<rect width="30" height="30" fill="white" transform="translate(80 27.7865) rotate(-21.0726)"/>
</clipPath>
<clipPath id="clip2_634_1104">
<rect width="22" height="22" fill="white" transform="translate(141.098 64) rotate(21.5977)"/>
</clipPath>
</defs>
</svg>
