<svg width="380" height="128" viewBox="0 0 380 128" fill="none" xmlns="http://www.w3.org/2000/svg">
<g clip-path="url(#clip0_649_1443)">
<rect width="380" height="128" fill="#B8DBC5"/>
<g filter="url(#filter0_d_649_1443)">
<path d="M144 67.0801C144 82.3384 132.4 87 118.903 87C105.407 87 94 79.6357 94 64.3774C94 49.1191 102.766 40.2533 117.507 37C131.003 37 144 51.8218 144 67.0801Z" fill="white"/>
<circle cx="117.051" cy="51.0508" r="2.05078" fill="black"/>
<circle cx="131.113" cy="53.1016" r="2.05078" fill="black"/>
<path d="M124.18 60.5382C124.18 61.4469 123.611 62.1836 122.91 62.1836C122.209 62.1836 121.641 61.8932 121.641 60.5382C121.641 59.1831 122.209 58.8927 122.91 58.8927C123.611 58.8927 124.18 58.5056 124.18 60.5382Z" fill="black"/>
<g clip-path="url(#clip1_649_1443)">
<path d="M76.6309 25.4243C75.7314 23.5618 76.5143 21.3161 78.3768 20.4166L93.5722 13.0773C95.4347 12.1778 97.6804 12.9607 98.5799 14.8232L100.211 18.1999C101.11 20.0624 100.328 22.3081 98.465 23.2076L83.2696 30.5468C81.4071 31.4464 79.1614 30.6635 78.2619 28.801L76.6309 25.4243ZM92.4121 36.5424C91.961 35.6085 92.3511 34.4896 93.285 34.0385L92.8772 33.1943C91.7509 30.8622 92.7275 28.0611 95.0595 26.9347L102.657 23.2651C103.591 22.814 103.981 21.6951 103.53 20.7612L102.715 19.0729L100.408 14.2979C102.713 14.0438 105.026 15.2365 106.091 17.4419L106.907 19.1303C108.258 21.9267 107.085 25.2912 104.288 26.6419L96.6905 30.3115C96.2262 30.5357 96.0298 31.0991 96.254 31.5634L96.6617 32.4076C97.5956 31.9565 98.7145 32.3466 99.1656 33.2805L102.427 40.034C102.879 40.9679 102.488 42.0868 101.555 42.5379L98.1778 44.1688C97.2439 44.6199 96.125 44.2298 95.6739 43.2959L92.4121 36.5424Z" fill="#2E4A38"/>
</g>
<g clip-path="url(#clip2_649_1443)">
<g clip-path="url(#clip3_649_1443)">
<path d="M131.295 59.0587C131.791 57.9232 133.117 57.4032 134.253 57.8992L143.517 61.9457C144.652 62.4417 145.172 63.7681 144.676 64.9036L143.777 66.9624C143.281 68.0979 141.955 68.6178 140.819 68.1219L131.555 64.0754C130.419 63.5794 129.899 62.253 130.395 61.1175L131.295 59.0587ZM132.395 70.571C132.644 70.0017 133.305 69.7426 133.874 69.9913L134.099 69.4766C134.72 68.0548 136.374 67.4062 137.796 68.0272L142.428 70.0504C142.998 70.2991 143.659 70.0401 143.907 69.4707L144.357 68.4413L145.628 65.5302C146.643 66.4789 147.003 67.9959 146.416 69.3405L145.966 70.3699C145.221 72.0748 143.234 72.8538 141.529 72.1092L136.897 70.0859C136.614 69.9623 136.281 70.0927 136.157 70.3758L135.933 70.8905C136.502 71.1392 136.761 71.8001 136.512 72.3695L134.714 76.4869C134.465 77.0563 133.804 77.3154 133.235 77.0667L131.176 76.1675C130.607 75.9188 130.348 75.2578 130.597 74.6885L132.395 70.571Z" fill="#2E4A38"/>
</g>
</g>
</g>
<ellipse cx="435" cy="130.5" rx="274" ry="233.5" fill="#80BE96"/>
<path d="M94 68.7686C94 88.6452 78.4744 99 58.6995 99C38.9246 99 24 83.7866 24 63.91C24 44.0335 42.1791 29 61.954 29C81.7289 29 94 48.8921 94 68.7686Z" fill="#4F9568"/>
<ellipse cx="47.6599" cy="57.3969" rx="2.56008" ry="2.56008" fill="black"/>
<ellipse cx="66.4339" cy="57.3969" rx="2.56008" ry="2.56008" fill="black"/>
<path d="M74.909 72.7289C74.909 73.9214 68.2081 69.9096 59.1587 69.9096C50.1093 69.9096 43.0908 74.5071 43.0908 72.7289C43.0908 70.9506 50.1093 65.5909 59.1587 65.5909C68.2081 65.5909 74.909 70.0615 74.909 72.7289Z" fill="black"/>
<path d="M252.504 53.896H265.928V55.592H252.504V53.896ZM258.104 54.984H260.216V60.424H258.104V54.984ZM254.056 46.328H264.328V52.312H254.056V46.328ZM262.232 48.008H256.152V50.632H262.232V48.008ZM268.951 52.44H279.367V54.136H268.951V52.44ZM267.399 56.904H280.807V58.648H267.399V56.904ZM268.951 46.824H279.255V48.552H271.063V53.144H268.951V46.824ZM282.998 46.936H290.118V56.904H282.998V46.936ZM288.038 48.6H285.094V55.224H288.038V48.6ZM292.422 45.592H294.566V60.456H292.422V45.592ZM307.461 45.592H309.573V60.456H307.461V45.592ZM304.917 50.808H307.701V52.536H304.917V50.808ZM297.813 55.384H298.997C301.445 55.384 303.269 55.352 305.365 55.016L305.557 56.712C303.413 57.048 301.493 57.112 298.997 57.112H297.813V55.384ZM297.813 46.84H304.677V48.568H299.925V55.928H297.813V46.84ZM299.445 50.968H304.165V52.632H299.445V50.968ZM312.019 52.248H325.443V53.8H312.019V52.248ZM313.523 54.536H323.843V58.056H315.667V59.32H313.555V56.712H321.747V55.976H313.523V54.536ZM313.555 58.872H324.259V60.312H313.555V58.872ZM313.667 45.864H323.811V49.352H315.795V50.568H313.683V48.024H321.715V47.288H313.667V45.864ZM313.683 50.12H324.083V51.56H313.683V50.12ZM331.026 53.24H344.434V54.904H331.026V53.24ZM336.658 51.656H338.786V53.848H336.658V51.656ZM332.69 50.728H343.01V52.344H332.69V50.728ZM332.69 45.976H342.898V47.592H334.802V51.64H332.69V45.976ZM334.21 48.376H342.562V49.928H334.21V48.376ZM337.714 55.56C340.962 55.56 342.85 56.424 342.85 57.992C342.85 59.576 340.962 60.424 337.714 60.424C334.45 60.424 332.562 59.576 332.562 57.992C332.562 56.424 334.45 55.56 337.714 55.56ZM337.714 57.128C335.65 57.128 334.706 57.384 334.706 57.992C334.706 58.616 335.65 58.872 337.714 58.872C339.762 58.872 340.706 58.616 340.706 57.992C340.706 57.384 339.762 57.128 337.714 57.128ZM355.457 45.624H357.585V56.696H355.457V45.624ZM356.977 50.136H359.553V51.88H356.977V50.136ZM345.921 47.16H354.641V48.824H345.921V47.16ZM350.289 49.352C352.417 49.352 353.921 50.52 353.921 52.216C353.921 53.912 352.417 55.064 350.289 55.064C348.145 55.064 346.641 53.912 346.641 52.216C346.641 50.52 348.145 49.352 350.289 49.352ZM350.289 50.968C349.345 50.968 348.689 51.416 348.689 52.216C348.689 53.016 349.345 53.448 350.289 53.448C351.233 53.448 351.889 53.016 351.889 52.216C351.889 51.416 351.233 50.968 350.289 50.968ZM349.217 45.592H351.345V47.976H349.217V45.592ZM348.033 58.472H358.113V60.168H348.033V58.472ZM348.033 55.864H350.161V59.208H348.033V55.864ZM240.393 71.208H243.001V72.952H240.393V71.208ZM238.809 65.592H240.953V80.408H238.809V65.592ZM229.785 67.016H231.913V76.216H229.785V67.016ZM229.785 75.032H231.065C233.177 75.032 235.465 74.888 237.849 74.408L238.073 76.152C235.625 76.664 233.241 76.792 231.065 76.792H229.785V75.032ZM248.984 66.584C251.32 66.584 253.064 68.104 253.064 70.232C253.064 72.376 251.32 73.896 248.984 73.896C246.664 73.896 244.888 72.376 244.888 70.232C244.888 68.104 246.664 66.584 248.984 66.584ZM248.984 68.408C247.848 68.408 246.984 69.08 246.984 70.232C246.984 71.4 247.848 72.072 248.984 72.072C250.12 72.072 250.984 71.4 250.984 70.232C250.984 69.08 250.12 68.408 248.984 68.408ZM254.456 65.592H256.584V80.456H254.456V65.592ZM244.536 77.448L244.28 75.736C246.888 75.736 250.52 75.704 253.64 75.24L253.8 76.776C250.584 77.416 247.096 77.448 244.536 77.448ZM272.775 65.608H274.903V73.864H272.775V65.608ZM274.311 68.824H276.871V70.568H274.311V68.824ZM268.519 66.456H270.791C270.791 70.392 268.327 73.064 263.911 74.216L263.079 72.536C266.711 71.624 268.519 69.736 268.519 67.512V66.456ZM263.783 66.456H269.799V68.136H263.783V66.456ZM265.287 74.456H274.903V80.264H265.287V74.456ZM272.807 76.136H267.383V78.584H272.807V76.136ZM286.149 69.192H288.965V70.92H286.149V69.192ZM288.389 65.608H290.517V74.408H288.389V65.608ZM285.493 74.728C288.629 74.728 290.565 75.8 290.565 77.592C290.565 79.4 288.629 80.44 285.493 80.44C282.357 80.44 280.421 79.4 280.421 77.592C280.421 75.8 282.357 74.728 285.493 74.728ZM285.493 76.344C283.573 76.344 282.549 76.744 282.549 77.592C282.549 78.424 283.573 78.824 285.493 78.824C287.429 78.824 288.453 78.424 288.453 77.592C288.453 76.744 287.429 76.344 285.493 76.344ZM281.541 67.096H283.269V68.024C283.269 70.856 281.957 73.448 279.125 74.408L278.037 72.728C280.485 71.896 281.541 69.928 281.541 68.024V67.096ZM281.989 67.096H283.701V68.024C283.701 69.768 284.709 71.576 287.045 72.36L286.005 74.04C283.253 73.128 281.989 70.664 281.989 68.024V67.096ZM278.613 66.504H286.581V68.2H278.613V66.504ZM306.613 65.608H308.757V80.424H306.613V65.608ZM308.277 71.128H310.901V72.888H308.277V71.128ZM297.589 66.776H299.701V70.376H302.677V66.776H304.789V77H297.589V66.776ZM299.701 72.024V75.288H302.677V72.024H299.701ZM312.035 77.064H325.443V78.792H312.035V77.064ZM317.651 74.264H319.779V77.768H317.651V74.264ZM313.539 66.568H323.939V71.496H315.683V73.992H313.571V69.832H321.827V68.248H313.539V66.568ZM313.571 73.144H324.275V74.856H313.571V73.144ZM340.578 65.608H342.706V73H340.578V65.608ZM341.842 68.44H344.658V70.184H341.842V68.44ZM332.914 73.592H342.706V77.656H335.058V79.416H332.946V76.12H340.61V75.224H332.914V73.592ZM332.946 78.6H343.138V80.264H332.946V78.6ZM335.09 66.04C337.362 66.04 339.042 67.432 339.042 69.4C339.042 71.352 337.362 72.76 335.09 72.76C332.834 72.76 331.138 71.352 331.138 69.4C331.138 67.432 332.834 66.04 335.09 66.04ZM335.09 67.752C334.002 67.752 333.202 68.36 333.202 69.4C333.202 70.44 334.002 71.064 335.09 71.064C336.194 71.064 336.994 70.44 336.994 69.4C336.994 68.36 336.194 67.752 335.09 67.752ZM356.129 65.608H358.273V80.424H356.129V65.608ZM351.761 67.144H353.873C353.873 71.672 352.337 75.384 347.073 77.928L345.969 76.232C350.225 74.184 351.761 71.496 351.761 67.528V67.144ZM346.753 67.144H352.769V68.824H346.753V67.144Z" fill="#223529"/>
</g>
<defs>
<filter id="filter0_d_649_1443" x="72.2222" y="7.33333" width="82.1088" height="83.5556" filterUnits="userSpaceOnUse" color-interpolation-filters="sRGB">
<feFlood flood-opacity="0" result="BackgroundImageFix"/>
<feColorMatrix in="SourceAlpha" type="matrix" values="0 0 0 0 0 0 0 0 0 0 0 0 0 0 0 0 0 0 127 0" result="hardAlpha"/>
<feOffset dy="1.11111"/>
<feGaussianBlur stdDeviation="1.38889"/>
<feComposite in2="hardAlpha" operator="out"/>
<feColorMatrix type="matrix" values="0 0 0 0 0 0 0 0 0 0 0 0 0 0 0 0 0 0 0.25 0"/>
<feBlend mode="normal" in2="BackgroundImageFix" result="effect1_dropShadow_649_1443"/>
<feBlend mode="normal" in="SourceGraphic" in2="effect1_dropShadow_649_1443" result="shape"/>
</filter>
<clipPath id="clip0_649_1443">
<rect width="380" height="128" fill="white"/>
</clipPath>
<clipPath id="clip1_649_1443">
<rect width="30" height="30" fill="white" transform="translate(75 22.0475) rotate(-25.7799)"/>
</clipPath>
<clipPath id="clip2_649_1443">
<rect width="22" height="22" fill="white" transform="translate(131.098 55) rotate(21.5977)"/>
</clipPath>
<clipPath id="clip3_649_1443">
<rect width="17.9723" height="17.9723" fill="white" transform="translate(132.194 57) rotate(23.5949)"/>
</clipPath>
</defs>
</svg>
