<svg width="512" height="512" viewBox="0 0 512 512" fill="none" xmlns="http://www.w3.org/2000/svg">
<path d="M512 290.879C512 436.262 398.441 512 253.802 512C109.163 512 0 400.725 0 255.342C0 109.959 132.967 0 277.606 0C422.245 0 512 145.496 512 290.879Z" fill="#6B7773"/>
<path d="M349.128 191.158C349.128 194.756 329.39 189.242 311.188 189.242C274.397 190.775 281.678 190.008 278.229 187.326C275.389 185.116 292.985 177.744 311.188 177.744C329.39 177.744 349.128 187.56 349.128 191.158Z" fill="black"/>
<path d="M137.963 198.76C137.963 202.341 160.061 196.852 180.439 196.852C221.627 198.378 213.476 197.615 217.337 194.945C220.517 192.746 200.817 185.409 180.439 185.409C160.061 185.409 137.963 195.178 137.963 198.76Z" fill="black"/>
<path d="M376.916 333.542C400.288 303.765 366.903 216.069 261.158 216.069C130.892 216.069 135.49 280.565 139.321 315.67C160.777 337.305 171.776 326.061 233.775 326.061C295.774 326.061 347.798 345.38 376.916 333.542Z" fill="black"/>
<path d="M306.97 239.448C306.97 250.836 296.652 267.276 248.906 267.276C212.238 267.276 194.682 254.286 194.682 242.897C194.682 231.509 217.685 226.034 248.906 226.034C280.127 226.034 306.97 228.059 306.97 239.448Z" fill="white"/>
<rect width="8.43119" height="50.7134" transform="matrix(0.991738 -0.12828 0.128272 0.991739 242.216 221.75)" fill="black"/>
<ellipse cx="134.515" cy="204.186" rx="6.51501" ry="6.51523" fill="#51C0FF"/>
<ellipse cx="353.725" cy="193.464" rx="6.51501" ry="6.51523" fill="#51C0FF"/>
</svg>
