<svg width="56" height="56" viewBox="0 0 56 56" fill="none" xmlns="http://www.w3.org/2000/svg">
<path d="M52 31.2699C52 44.8996 41.3539 52 27.7939 52C14.234 52 4 41.568 4 27.9383C4 14.3087 16.4656 4 30.0256 4C43.5855 4 52 17.6403 52 31.2699Z" fill="#6B7773"/>
<path d="M36.7308 21.9211C36.7308 22.2584 34.8804 21.7415 33.1739 21.7415C29.7248 21.8852 30.4074 21.8133 30.0841 21.5618C29.8178 21.3547 31.4674 20.6636 33.1739 20.6636C34.8804 20.6636 36.7308 21.5838 36.7308 21.9211Z" fill="black"/>
<path d="M16.9341 22.6337C16.9341 22.9694 19.0058 22.4549 20.9162 22.4549C24.7776 22.5979 24.0134 22.5264 24.3754 22.2761C24.6735 22.0699 22.8267 21.3821 20.9162 21.3821C19.0058 21.3821 16.9341 22.2979 16.9341 22.6337Z" fill="black"/>
<path d="M39.3359 35.2695C41.527 32.4779 38.3971 24.2564 28.4835 24.2564C16.2712 24.2564 16.7022 30.3029 17.0614 33.594C19.0728 35.6223 20.1041 34.5682 25.9164 34.5682C31.7288 34.5682 36.6061 36.3793 39.3359 35.2695Z" fill="black"/>
<path d="M32.7785 26.4482C32.7785 27.5159 31.8112 29.0571 27.335 29.0571C23.8974 29.0571 22.2515 27.8393 22.2515 26.7716C22.2515 25.7039 24.4081 25.1907 27.335 25.1907C30.262 25.1907 32.7785 25.3805 32.7785 26.4482Z" fill="white"/>
<rect width="0.790425" height="4.75439" transform="matrix(0.991738 -0.12828 0.128272 0.991739 26.7078 24.7891)" fill="black"/>
<ellipse cx="16.6108" cy="23.1423" rx="0.610782" ry="0.610803" fill="#51C0FF"/>
<ellipse cx="37.1618" cy="22.1372" rx="0.610781" ry="0.610802" fill="#51C0FF"/>
</svg>
