<svg width="512" height="512" viewBox="0 0 512 512" fill="none" xmlns="http://www.w3.org/2000/svg">
<path d="M512 290.879C512 436.262 398.441 512 253.802 512C109.163 512 0 400.725 0 255.342C0 109.959 132.967 0 277.606 0C422.245 0 512 145.496 512 290.879Z" fill="#4F9568"/>
<ellipse cx="173.055" cy="207.702" rx="18.7252" ry="18.7252" fill="black"/>
<ellipse cx="310.373" cy="207.702" rx="18.7252" ry="18.7252" fill="black"/>
<path d="M372.363 319.845C372.363 328.568 323.351 299.224 257.161 299.224C190.971 299.224 139.636 332.852 139.636 319.845C139.636 306.838 190.971 267.636 257.161 267.636C323.351 267.636 372.363 300.335 372.363 319.845Z" fill="black"/>
</svg>
