<svg width="512" height="512" viewBox="0 0 512 512" fill="none" xmlns="http://www.w3.org/2000/svg">
<path d="M512 290.879C512 436.262 398.441 512 253.802 512C109.163 512 0 400.725 0 255.342C0 109.959 132.967 0 277.606 0C422.245 0 512 145.496 512 290.879Z" fill="#D9D9D9"/>
<ellipse cx="173.052" cy="207.702" rx="18.7252" ry="18.7252" fill="#828282"/>
<ellipse cx="310.37" cy="207.702" rx="18.7252" ry="18.7252" fill="#828282"/>
<path d="M366.545 311.407C366.545 319.779 315.046 326.565 251.519 326.565C187.992 326.565 133.818 316.486 133.818 304.002C133.818 291.519 187.992 296.248 251.519 296.248C315.046 296.248 366.545 292.682 366.545 311.407Z" fill="#828282"/>
</svg>
