<svg width="512" height="512" viewBox="0 0 512 512" fill="none" xmlns="http://www.w3.org/2000/svg">
<path d="M512 290.879C512 436.262 398.441 512 253.802 512C109.163 512 0 400.725 0 255.342C0 109.959 132.967 0 277.606 0C422.245 0 512 145.496 512 290.879Z" fill="#FFCF71"/>
<path d="M309.706 284.268C309.706 307.69 294.29 399.418 232.13 399.418C191.268 399.418 187.375 307.69 187.375 284.268C211.483 265.279 196.241 289.519 237.103 289.519C298.268 285.043 281.441 262.114 309.706 284.268Z" fill="#FFB4B4"/>
<path d="M309.706 284.374C309.706 307.796 294.29 399.524 232.13 399.524C191.268 399.524 187.375 307.795 187.375 284.374C211.483 265.385 191.268 382.616 232.13 382.616C293.296 378.141 281.441 262.22 309.706 284.374Z" fill="black"/>
<ellipse cx="172.958" cy="175.64" rx="24.3667" ry="24.3668" fill="black"/>
<ellipse cx="345.01" cy="179.12" rx="27.3504" ry="27.8478" fill="black"/>
<path d="M345.51 279.493C345.51 289.794 299.025 292.506 242.316 292.506C185.608 292.506 139.636 284.155 139.636 273.854C139.636 263.552 183.729 271.685 240.438 271.685C297.147 271.685 345.51 269.191 345.51 279.493Z" fill="black"/>
<path d="M359.89 325.909C349.909 328.557 341.914 309.028 335.367 284.354C328.821 259.679 331.605 237.53 341.587 234.881C351.568 232.233 348.779 253.509 355.326 278.183C361.873 302.858 369.872 323.26 359.89 325.909Z" fill="black"/>
<path d="M254.011 313.39C254.011 333.713 244.592 350.189 239.102 350.189C233.613 350.189 234.133 333.713 234.133 313.39C234.133 293.066 238.583 276.591 244.072 276.591C249.561 276.591 254.011 293.066 254.011 313.39Z" fill="black"/>
</svg>
