<svg width="380" height="128" viewBox="0 0 380 128" fill="none" xmlns="http://www.w3.org/2000/svg">
<g clip-path="url(#clip0_634_1150)">
<rect width="380" height="128" fill="#D5D5D5"/>
<g filter="url(#filter0_d_634_1150)">
<path d="M144 77.0801C144 92.3384 132.4 97 118.903 97C105.407 97 94 89.6357 94 74.3774C94 59.1191 102.766 50.2533 117.507 47C131.003 47 144 61.8218 144 77.0801Z" fill="white"/>
<circle cx="117.051" cy="61.0508" r="2.05078" fill="black"/>
<circle cx="129.051" cy="63.0508" r="2.05078" fill="black"/>
<path d="M124.18 70.5382C124.18 71.4469 123.611 72.1836 122.91 72.1836C122.209 72.1836 121.641 71.8932 121.641 70.5382C121.641 69.1831 122.209 68.8927 122.91 68.8927C123.611 68.8927 124.18 68.5056 124.18 70.5382Z" fill="black"/>
</g>
<ellipse cx="435" cy="130.5" rx="274" ry="233.5" fill="#AAAAAA"/>
<path d="M94 78.7686C94 98.6452 78.4744 109 58.6995 109C38.9246 109 24 93.7866 24 73.91C24 54.0335 42.1791 39 61.954 39C81.7289 39 94 58.8921 94 78.7686Z" fill="#F4F1D7"/>
<ellipse cx="47.6599" cy="67.3969" rx="2.56008" ry="2.56008" fill="black"/>
<ellipse cx="66.4339" cy="67.3969" rx="2.56008" ry="2.56008" fill="black"/>
<path d="M74.1136 81.5752C74.1136 82.7198 67.0727 83.6476 58.3874 83.6476C49.702 83.6476 42.2954 82.2695 42.2954 80.5628C42.2954 78.8561 49.702 79.5027 58.3874 79.5027C67.0727 79.5027 74.1136 79.0151 74.1136 81.5752Z" fill="black"/>
<g clip-path="url(#clip1_634_1150)">
<path d="M85.8143 19.3281C85.2225 19.7383 84.912 20.4472 85.0233 21.1562L88.7733 45.5312C88.8612 46.0996 89.2069 46.5976 89.7108 46.8789C90.2147 47.1601 90.8182 47.1953 91.3514 46.9726L98.3593 44.0605L102.373 48.4023C102.894 48.9707 103.715 49.1582 104.435 48.8769C105.156 48.5957 105.625 47.8984 105.625 47.125V42.2265C105.625 41.9922 105.537 41.7695 105.379 41.5996L95.5585 30.8828C95.2186 30.5137 95.2303 29.9453 95.5819 29.5937C95.9335 29.2422 96.5018 29.2187 96.871 29.5527L108.789 40.1406L113.963 37.5508C114.584 37.2402 114.982 36.6191 115 35.9277C115.017 35.2363 114.654 34.5918 114.057 34.2461L87.8065 19.2461C87.1796 18.8887 86.4061 18.9238 85.8143 19.3281Z" fill="#5B5B5B"/>
</g>
<g clip-path="url(#clip2_634_1150)">
<path d="M160.403 47.2405C160.837 47.5413 161.064 48.0612 160.983 48.5812L158.233 66.4562C158.168 66.873 157.915 67.2382 157.545 67.4445C157.176 67.6507 156.733 67.6765 156.342 67.5132L151.203 65.3777L148.26 68.5616C147.877 68.9784 147.276 69.1159 146.747 68.9097C146.219 68.7034 145.875 68.1921 145.875 67.6249V64.0327C145.875 63.8609 145.939 63.6976 146.055 63.573L153.257 55.714C153.506 55.4433 153.498 55.0265 153.24 54.7687C152.982 54.5109 152.565 54.4937 152.294 54.7386L143.555 62.503L139.761 60.6038C139.305 60.3761 139.013 59.9206 139 59.4136C138.987 58.9066 139.253 58.4339 139.692 58.1804L158.942 47.1804C159.402 46.9183 159.969 46.9441 160.403 47.2405Z" fill="#5B5B5B"/>
</g>
<path d="M286.438 46.04C288.694 46.04 290.39 47.448 290.39 49.432C290.39 51.4 288.694 52.808 286.438 52.808C284.182 52.808 282.486 51.4 282.486 49.432C282.486 47.448 284.182 46.04 286.438 46.04ZM286.438 47.768C285.35 47.768 284.534 48.376 284.534 49.432C284.534 50.488 285.35 51.096 286.438 51.096C287.526 51.096 288.326 50.488 288.326 49.432C288.326 48.376 287.526 47.768 286.438 47.768ZM292.438 45.608H294.582V53.016H292.438V45.608ZM284.694 53.624H294.582V57.688H286.806V59.48H284.726V56.152H292.47V55.272H284.694V53.624ZM284.726 58.616H294.95V60.264H284.726V58.616ZM300.389 46.408H302.133V47.72C302.133 50.664 300.853 53.256 298.037 54.232L296.901 52.552C299.381 51.72 300.389 49.736 300.389 47.72V46.408ZM300.821 46.408H302.549V47.928C302.549 49.704 303.541 51.432 305.861 52.152L304.757 53.8C302.085 52.904 300.821 50.6 300.821 47.928V46.408ZM306.677 45.608H308.805V54.36H306.677V45.608ZM308.213 49.032H310.773V50.792H308.213V49.032ZM303.973 54.696C307.045 54.696 308.981 55.768 308.981 57.56C308.981 59.368 307.045 60.424 303.973 60.424C300.885 60.424 298.949 59.368 298.949 57.56C298.949 55.768 300.885 54.696 303.973 54.696ZM303.973 56.344C302.085 56.344 301.061 56.744 301.061 57.56C301.061 58.392 302.085 58.776 303.973 58.776C305.861 58.776 306.869 58.392 306.869 57.56C306.869 56.744 305.861 56.344 303.973 56.344ZM318.836 46.504H320.5V48.216C320.5 50.728 319.492 53.24 317.076 54.264L315.956 52.616C318.02 51.704 318.836 49.88 318.836 48.216V46.504ZM319.22 46.504H320.884V48.216C320.884 49.8 321.684 51.4 323.636 52.168L322.5 53.784C320.196 52.872 319.22 50.632 319.22 48.216V46.504ZM326.772 45.624H328.788V54.664H326.772V45.624ZM324.996 49.208H327.348V50.92H324.996V49.208ZM323.636 45.896H325.62V54.2H323.636V45.896ZM323.764 54.872C326.868 54.872 328.868 55.912 328.868 57.656C328.868 59.384 326.868 60.424 323.764 60.424C320.644 60.424 318.676 59.384 318.676 57.656C318.676 55.912 320.644 54.872 323.764 54.872ZM323.764 56.472C321.86 56.472 320.788 56.872 320.788 57.656C320.788 58.44 321.86 58.824 323.764 58.824C325.668 58.824 326.724 58.44 326.724 57.656C326.724 56.872 325.668 56.472 323.764 56.472ZM340.674 45.608H342.802V54.312H340.674V45.608ZM342.05 49.096H344.658V50.84H342.05V49.096ZM332.834 54.856H342.802V58.216H334.962V59.4H332.85V56.904H340.706V56.264H332.834V54.856ZM332.85 58.92H343.314V60.328H332.85V58.92ZM334.402 51.528H336.53V53.64H334.402V51.528ZM331.09 54.184L330.866 52.744C333.49 52.744 337.026 52.728 340.018 52.328L340.178 53.624C337.058 54.168 333.65 54.184 331.09 54.184ZM331.25 46.536H339.65V47.944H331.25V46.536ZM335.458 48.216C337.65 48.216 339.058 48.936 339.058 50.152C339.058 51.384 337.65 52.104 335.458 52.104C333.25 52.104 331.842 51.384 331.842 50.152C331.842 48.936 333.25 48.216 335.458 48.216ZM335.458 49.528C334.45 49.528 333.858 49.72 333.858 50.152C333.858 50.584 334.45 50.792 335.458 50.792C336.466 50.792 337.042 50.584 337.042 50.152C337.042 49.72 336.466 49.528 335.458 49.528ZM334.402 45.48H336.53V47.32H334.402V45.48ZM350.689 46.584C353.025 46.584 354.769 48.104 354.769 50.232C354.769 52.376 353.025 53.896 350.689 53.896C348.369 53.896 346.593 52.376 346.593 50.232C346.593 48.104 348.369 46.584 350.689 46.584ZM350.689 48.408C349.553 48.408 348.689 49.08 348.689 50.232C348.689 51.4 349.553 52.072 350.689 52.072C351.825 52.072 352.689 51.4 352.689 50.232C352.689 49.08 351.825 48.408 350.689 48.408ZM356.161 45.592H358.289V60.456H356.161V45.592ZM346.241 57.448L345.985 55.736C348.593 55.736 352.225 55.704 355.345 55.24L355.505 56.776C352.289 57.416 348.801 57.448 346.241 57.448ZM218.618 76.952H232.026V78.696H218.618V76.952ZM224.186 73.656H226.298V77.416H224.186V73.656ZM224.106 66.424H225.962V67.496C225.962 70.648 223.674 73.432 219.802 74.136L218.922 72.36C222.298 71.816 224.106 69.544 224.106 67.496V66.424ZM224.522 66.424H226.378V67.496C226.378 69.592 228.186 71.816 231.578 72.36L230.698 74.136C226.81 73.416 224.522 70.696 224.522 67.496V66.424ZM233.497 76.952H246.905V78.696H233.497V76.952ZM239.065 73.656H241.177V77.416H239.065V73.656ZM238.985 66.424H240.841V67.496C240.841 70.648 238.553 73.432 234.681 74.136L233.801 72.36C237.177 71.816 238.985 69.544 238.985 67.496V66.424ZM239.401 66.424H241.257V67.496C241.257 69.592 243.065 71.816 246.457 72.36L245.577 74.136C241.689 73.416 239.401 70.696 239.401 67.496V66.424ZM257.864 65.608H259.976V80.424H257.864V65.608ZM259.496 71.384H262.12V73.16H259.496V71.384ZM248.296 67.8H256.92V69.496H248.296V67.8ZM252.632 70.328C254.792 70.328 256.392 71.8 256.392 73.864C256.392 75.928 254.792 77.4 252.632 77.4C250.472 77.4 248.872 75.928 248.872 73.864C248.872 71.8 250.472 70.328 252.632 70.328ZM252.632 72.056C251.624 72.056 250.904 72.728 250.904 73.864C250.904 75 251.624 75.672 252.632 75.672C253.64 75.672 254.36 75 254.36 73.864C254.36 72.728 253.64 72.056 252.632 72.056ZM251.56 65.848H253.688V68.44H251.56V65.848ZM264.615 66.856H274.007V68.568H264.615V66.856ZM263.255 76.92H276.647V78.648H263.255V76.92ZM267.991 71.832H270.119V77.768H267.991V71.832ZM273.239 66.856H275.367V68.28C275.367 70.136 275.367 72.216 274.775 75.384L272.647 75.144C273.239 72.2 273.239 70.056 273.239 68.28V66.856ZM285.622 72.376H287.75V74.504H285.622V72.376ZM291.894 65.624H294.022V75.704H291.894V65.624ZM293.27 69.848H295.878V71.592H293.27V69.848ZM282.326 75.416L282.086 73.768C284.742 73.768 288.246 73.752 291.238 73.384L291.398 74.84C288.31 75.368 284.918 75.4 282.326 75.416ZM283.974 76.296H294.022V80.424H291.894V77.928H283.974V76.296ZM282.47 66.696H290.87V68.216H282.47V66.696ZM286.678 68.568C288.854 68.568 290.278 69.416 290.278 70.776C290.278 72.136 288.854 72.984 286.678 72.984C284.486 72.984 283.062 72.136 283.062 70.776C283.062 69.416 284.486 68.568 286.678 68.568ZM286.678 69.96C285.67 69.96 285.078 70.216 285.078 70.776C285.078 71.304 285.67 71.592 286.678 71.592C287.67 71.592 288.262 71.304 288.262 70.776C288.262 70.216 287.67 69.96 286.678 69.96ZM285.622 65.496H287.75V67.384H285.622V65.496ZM307.317 65.608H309.461V73.096H307.317V65.608ZM299.573 73.752H309.461V77.768H301.685V79.256H299.605V76.232H307.349V75.368H299.573V73.752ZM299.605 78.68H309.829V80.328H299.605V78.68ZM300.613 65.944H302.373V67.064C302.373 69.8 300.997 72.28 298.101 73.16L297.077 71.48C299.557 70.728 300.613 68.872 300.613 67.064V65.944ZM301.045 65.944H302.789V67.064C302.789 68.824 303.829 70.552 306.245 71.24L305.221 72.888C302.373 72.056 301.045 69.736 301.045 67.064V65.944ZM321.555 65.624H323.683V76.696H321.555V65.624ZM323.075 70.136H325.651V71.88H323.075V70.136ZM312.019 67.16H320.739V68.824H312.019V67.16ZM316.387 69.352C318.515 69.352 320.019 70.52 320.019 72.216C320.019 73.912 318.515 75.064 316.387 75.064C314.243 75.064 312.739 73.912 312.739 72.216C312.739 70.52 314.243 69.352 316.387 69.352ZM316.387 70.968C315.443 70.968 314.787 71.416 314.787 72.216C314.787 73.016 315.443 73.448 316.387 73.448C317.331 73.448 317.987 73.016 317.987 72.216C317.987 71.416 317.331 70.968 316.387 70.968ZM315.315 65.592H317.443V67.976H315.315V65.592ZM314.131 78.472H324.211V80.168H314.131V78.472ZM314.131 75.864H316.259V79.208H314.131V75.864ZM341.65 65.608H343.666V74.888H341.65V65.608ZM339.842 69.256H342.21V70.984H339.842V69.256ZM338.578 65.896H340.562V74.408H338.578V65.896ZM330.978 67.128H338.162V68.76H330.978V67.128ZM334.594 69.24C336.45 69.24 337.794 70.296 337.794 71.832C337.794 73.368 336.45 74.408 334.594 74.408C332.738 74.408 331.394 73.368 331.394 71.832C331.394 70.296 332.738 69.24 334.594 69.24ZM334.594 70.76C333.81 70.76 333.282 71.144 333.282 71.832C333.282 72.52 333.81 72.904 334.594 72.904C335.362 72.904 335.89 72.52 335.89 71.832C335.89 71.144 335.362 70.76 334.594 70.76ZM333.522 65.752H335.618V68.248H333.522V65.752ZM338.658 75.048C341.826 75.048 343.746 76.008 343.746 77.736C343.746 79.448 341.826 80.424 338.658 80.424C335.474 80.424 333.554 79.448 333.554 77.736C333.554 76.008 335.474 75.048 338.658 75.048ZM338.658 76.632C336.674 76.632 335.682 76.968 335.682 77.736C335.682 78.488 336.674 78.84 338.658 78.84C340.626 78.84 341.618 78.488 341.618 77.736C341.618 76.968 340.626 76.632 338.658 76.632ZM345.921 72.92H359.313V74.632H345.921V72.92ZM351.537 71.032H353.665V73.288H351.537V71.032ZM347.409 75.64H357.697V80.424H355.569V77.32H347.409V75.64ZM347.633 65.976H349.729V67.288H355.505V65.976H357.617V71.704H347.633V65.976ZM349.729 68.872V70.04H355.505V68.872H349.729Z" fill="#262525"/>
</g>
<defs>
<filter id="filter0_d_634_1150" x="91.2222" y="45.3333" width="55.5556" height="63.5556" filterUnits="userSpaceOnUse" color-interpolation-filters="sRGB">
<feFlood flood-opacity="0" result="BackgroundImageFix"/>
<feColorMatrix in="SourceAlpha" type="matrix" values="0 0 0 0 0 0 0 0 0 0 0 0 0 0 0 0 0 0 127 0" result="hardAlpha"/>
<feOffset dy="1.11111"/>
<feGaussianBlur stdDeviation="1.38889"/>
<feComposite in2="hardAlpha" operator="out"/>
<feColorMatrix type="matrix" values="0 0 0 0 0 0 0 0 0 0 0 0 0 0 0 0 0 0 0.25 0"/>
<feBlend mode="normal" in2="BackgroundImageFix" result="effect1_dropShadow_634_1150"/>
<feBlend mode="normal" in="SourceGraphic" in2="effect1_dropShadow_634_1150" result="shape"/>
</filter>
<clipPath id="clip0_634_1150">
<rect width="380" height="128" fill="white"/>
</clipPath>
<clipPath id="clip1_634_1150">
<rect width="30" height="30" fill="white" transform="matrix(-1 0 0 1 115 19)"/>
</clipPath>
<clipPath id="clip2_634_1150">
<rect width="22" height="22" fill="white" transform="translate(139 47)"/>
</clipPath>
</defs>
</svg>
