<svg width="56" height="56" viewBox="0 0 56 56" fill="none" xmlns="http://www.w3.org/2000/svg">
<path d="M50 30.9974C50 43.4913 40.2411 50 27.8111 50C15.3812 50 6 40.4373 6 27.9434C6 15.4496 17.4268 6 29.8568 6C42.2867 6 50 18.5036 50 30.9974Z" fill="#6B7773"/>
<circle cx="15" cy="28" r="5" fill="#37433F"/>
<circle cx="15" cy="28" r="5" fill="#37433F"/>
<circle cx="15" cy="28" r="5" fill="#37433F"/>
<circle cx="41" cy="28" r="5" fill="#37433F"/>
<circle cx="41" cy="28" r="5" fill="#37433F"/>
<circle cx="41" cy="28" r="5" fill="#37433F"/>
<path d="M36.0032 22.4276C36.0032 22.7369 34.3069 22.263 32.7427 22.263C29.581 22.3947 30.2067 22.3288 29.9103 22.0983C29.6662 21.9084 31.1784 21.2749 32.7427 21.2749C34.3069 21.2749 36.0032 22.1184 36.0032 22.4276Z" fill="black"/>
<path d="M17.8562 23.0809C17.8562 23.3887 19.7552 22.917 21.5065 22.917C25.0461 23.0481 24.3456 22.9825 24.6774 22.7531C24.9506 22.5641 23.2577 21.9336 21.5065 21.9336C19.7552 21.9336 17.8562 22.7731 17.8562 23.0809Z" fill="black"/>
<path d="M33.1347 34.7009C36.5825 35.1805 39.8208 32.6909 38.1821 29.6197C36.8012 27.0316 33.6383 24.5684 28.443 24.5684C23.9562 24.5684 21.3312 25.4587 19.8175 26.72C16.3401 29.6174 20.0984 34.2014 24.622 34.0459C25.0712 34.0305 25.5587 34.0209 26.0898 34.0209C28.6841 34.0209 31.0751 34.4145 33.1347 34.7009Z" fill="black"/>
<path d="M32.3802 26.5775C32.3802 27.5562 31.4935 28.969 27.3904 28.969C24.2392 28.969 22.7305 27.8527 22.7305 26.874C22.7305 25.8953 24.7074 25.4248 27.3904 25.4248C30.0735 25.4248 32.3802 25.5988 32.3802 26.5775Z" fill="white"/>
<rect width="0.724556" height="4.35819" rx="0.362278" transform="matrix(0.991738 -0.12828 0.128272 0.991739 26.8154 25.0566)" fill="black"/>
</svg>
