<svg width="56" height="56" viewBox="0 0 56 56" fill="none" xmlns="http://www.w3.org/2000/svg">
<path d="M50 30.9974C50 43.4913 40.2411 50 27.8111 50C15.3812 50 6 40.4373 6 27.9434C6 15.4496 17.4268 6 29.8568 6C42.2867 6 50 18.5036 50 30.9974Z" fill="#D9D9D9"/>
<path d="M32.6153 30.4293C32.6153 32.4421 31.2906 40.325 25.9487 40.325C22.4371 40.325 22.1025 32.4421 22.1025 30.4293C24.1743 28.7974 22.8645 30.8805 26.376 30.8805C31.6324 30.4959 30.1863 28.5255 32.6153 30.4293Z" fill="#AAAAAA"/>
<path d="M32.6153 30.4384C32.6153 32.4512 31.2906 40.3341 25.9487 40.3341C22.4371 40.3341 22.1025 32.4512 22.1025 30.4384C24.1743 28.8065 22.4371 38.8811 25.9487 38.8811C31.2051 38.4965 30.1863 28.5345 32.6153 30.4384Z" fill="#828282"/>
<ellipse cx="20.8633" cy="21.094" rx="2.09401" ry="2.09402" fill="#828282"/>
<ellipse cx="35.6495" cy="21.3932" rx="2.35042" ry="2.39317" fill="#828282"/>
<path d="M35.6923 30.0189C35.6923 30.9042 31.6974 31.1372 26.8241 31.1372C21.9507 31.1372 18 30.4196 18 29.5343C18 28.649 21.7892 29.3479 26.6626 29.3479C31.536 29.3479 35.6923 29.1336 35.6923 30.0189Z" fill="#828282"/>
<path d="M36.9281 34.0078C36.0703 34.2354 35.3833 32.5571 34.8206 30.4367C34.258 28.3162 34.4973 26.4127 35.3551 26.1851C36.2129 25.9575 35.9732 27.7859 36.5358 29.9064C37.0984 32.0269 37.7859 33.7802 36.9281 34.0078Z" fill="#828282"/>
<path d="M27.829 32.9319C27.829 34.6785 27.0196 36.0943 26.5479 36.0943C26.0761 36.0943 26.1208 34.6785 26.1208 32.9319C26.1208 31.1854 26.5032 29.7695 26.9749 29.7695C27.4466 29.7695 27.829 31.1854 27.829 32.9319Z" fill="#828282"/>
</svg>
