<svg width="56" height="56" viewBox="0 0 56 56" fill="none" xmlns="http://www.w3.org/2000/svg">
<path d="M50 30.9974C50 43.4913 40.2411 50 27.8111 50C15.3812 50 6 40.4373 6 27.9434C6 15.4496 17.4268 6 29.8568 6C42.2867 6 50 18.5036 50 30.9974Z" fill="#D9D9D9"/>
<circle cx="13" cy="28" r="5" fill="#AAAAAA"/>
<circle cx="42" cy="28" r="5" fill="#AAAAAA"/>
<circle cx="18.375" cy="21.5547" r="2.23438" fill="#828282"/>
<path d="M37.8396 23.0586C37.8396 23.462 35.6266 22.8438 33.5857 22.8438C29.4607 23.0156 30.2771 22.9297 29.8904 22.6289C29.572 22.3812 31.5449 21.5547 33.5857 21.5547C35.6266 21.5547 37.8396 22.6552 37.8396 23.0586Z" fill="#828282"/>
<path d="M34.7106 27.5205C37.8784 26.2384 40.9963 28.3657 40.4835 31.7444C39.7281 36.7218 35.7798 43.1678 27.5276 43.1678C19.0775 43.1678 15.4288 39.5309 13.9372 35.7492C12.2145 31.3813 15.4414 27.9242 19.9709 29.1613C21.4443 29.5637 23.198 29.902 25.3362 29.902C29.2168 29.902 32.2341 28.5228 34.7106 27.5205Z" fill="#828282"/>
<path d="M32.0391 30.8215C32.0391 32.0983 31.0541 35.7344 25.7008 35.7344C21.5895 35.7344 19.1484 32.7341 19.1484 31.4573C19.1484 30.1804 22.2003 31.1105 25.7008 31.1105C29.2013 31.1105 32.0391 29.5446 32.0391 30.8215Z" fill="white"/>
<rect x="24.9507" y="30.5723" width="0.945312" height="5.68585" rx="0.472656" transform="rotate(-7.36997 24.9507 30.5723)" fill="#828282"/>
</svg>
