<svg width="48" height="48" viewBox="0 0 48 48" fill="none" xmlns="http://www.w3.org/2000/svg">
<path d="M42.3529 21.2438C42.3529 33.0922 25.3852 38.9536 14.0185 38.9536C2.65187 38.9536 4.82995 33.1943 9.08467 21.2438C16.6969 11.3091 14.0185 13.6128 24.8728 8.71741C36.5732 7.70952 42.3529 9.3955 42.3529 21.2438Z" fill="#F7F7F7"/>
<path d="M42.2688 20.9393C42.2688 32.7877 26.9359 39.5295 15.5692 39.5295C4.20257 39.5295 3.0232 30.6026 12.468 37.2258C20.3622 41.1133 25.4939 36.2014 36.3482 31.3061C41.282 22.9551 42.2688 9.09102 42.2688 20.9393Z" fill="#D8D8D8"/>
<path d="M12.1857 35.3539C12.1857 36.1491 10.753 36.9377 9.50737 36.9377C8.26171 36.9377 7.6748 36.1491 7.6748 35.3539C7.6748 34.5588 8.96655 33.4822 10.2122 33.4822C11.4579 33.4822 12.1857 34.5588 12.1857 35.3539Z" fill="#584131"/>
</svg>
