<svg width="56" height="56" viewBox="0 0 56 56" fill="none" xmlns="http://www.w3.org/2000/svg">
<path d="M35 0.875C35 3.98125 32.6867 6.54883 29.6898 6.94531C29.4957 5.48516 28.8531 4.16719 27.9043 3.13633C28.9516 1.26602 30.9531 0 33.25 0H34.125C34.609 0 35 0.391016 35 0.875ZM21 2.625C21 2.14102 21.391 1.75 21.875 1.75H22.75C26.1324 1.75 28.875 4.49258 28.875 7.875V8.75V13.125C28.875 13.609 28.484 14 28 14C27.516 14 27.125 13.609 27.125 13.125V8.75C23.7426 8.75 21 6.00742 21 2.625Z" fill="#828282"/>
<path d="M50 35.9974C50 48.4913 40.2411 55 27.8111 55C15.3812 55 6 45.4373 6 32.9434C6 20.4496 17.4268 11 29.8568 11C42.2867 11 50 23.5036 50 35.9974Z" fill="#D9D9D9"/>
<path d="M32.6153 35.4293C32.6153 37.4421 31.2906 45.325 25.9487 45.325C22.4371 45.325 22.1025 37.4421 22.1025 35.4293C24.1743 33.7974 22.8645 35.8805 26.376 35.8805C31.6324 35.4959 30.1863 33.5255 32.6153 35.4293Z" fill="#AAAAAA"/>
<path d="M32.6153 35.4384C32.6153 37.4512 31.2906 45.3341 25.9487 45.3341C22.4371 45.3341 22.1025 37.4512 22.1025 35.4384C24.1743 33.8065 22.4371 43.8811 25.9487 43.8811C31.2051 43.4965 30.1863 33.5345 32.6153 35.4384Z" fill="#828282"/>
<ellipse cx="20.8633" cy="26.094" rx="2.09401" ry="2.09402" fill="#828282"/>
<ellipse cx="35.6495" cy="26.3932" rx="2.35042" ry="2.39317" fill="#828282"/>
<path d="M35.6923 35.0189C35.6923 35.9042 31.6974 36.1372 26.8241 36.1372C21.9507 36.1372 18 35.4196 18 34.5343C18 33.649 21.7892 34.3479 26.6626 34.3479C31.536 34.3479 35.6923 34.1336 35.6923 35.0189Z" fill="#828282"/>
<path d="M36.9281 39.0078C36.0703 39.2354 35.3833 37.5571 34.8206 35.4367C34.258 33.3162 34.4973 31.4127 35.3551 31.1851C36.2129 30.9575 35.9732 32.7859 36.5358 34.9064C37.0984 37.0269 37.7859 38.7802 36.9281 39.0078Z" fill="#828282"/>
<path d="M27.829 37.9319C27.829 39.6785 27.0196 41.0943 26.5479 41.0943C26.0761 41.0943 26.1208 39.6785 26.1208 37.9319C26.1208 36.1854 26.5032 34.7695 26.9749 34.7695C27.4466 34.7695 27.829 36.1854 27.829 37.9319Z" fill="#828282"/>
</svg>
