<svg width="164" height="162" viewBox="0 0 164 162" fill="none" xmlns="http://www.w3.org/2000/svg">
<circle cx="94" cy="92" r="70" fill="#FFCF71"/>
<path d="M90.3035 82.8491C90.3035 81.8822 81.0013 88.691 73.6644 88.691C66.3276 88.691 60.6373 84.9636 60.6373 86.4053C60.6373 87.847 66.3276 92.1924 73.6644 92.1924C81.0013 92.1924 90.3035 85.0117 90.3035 82.8491Z" fill="#695C5E"/>
<path d="M69.6662 56.4075C69.6662 63.531 60.0219 77.0449 52.8984 77.0449C45.7748 77.0449 40 71.2701 40 64.1465C40 57.023 45.7748 51.2482 52.8984 51.2482C60.0219 51.2482 69.6662 49.2839 69.6662 56.4075Z" fill="#695C5E"/>
<path d="M78.6951 56.4075C78.6951 63.531 88.3394 77.0449 95.463 77.0449C102.587 77.0449 108.361 71.2701 108.361 64.1465C108.361 57.023 102.587 51.2482 95.463 51.2482C88.3394 51.2482 78.6951 49.2839 78.6951 56.4075Z" fill="#695C5E"/>
<rect x="52.8983" y="51.2482" width="45.1442" height="2.57967" rx="1.28984" fill="#695C5E"/>
<rect x="134.583" y="8" width="6" height="16" rx="3" transform="rotate(28.2925 134.583 8)" fill="#FFCF71"/>
<rect x="75" y="0.713135" width="6" height="16" rx="3" transform="rotate(-6.82594 75 0.713135)" fill="#FFCF71"/>
<rect x="22" y="27.0784" width="6" height="16" rx="3" transform="rotate(-42.822 22 27.0784)" fill="#FFCF71"/>
<rect x="0.0627441" y="86.167" width="6" height="16" rx="3" transform="rotate(-90.599 0.0627441 86.167)" fill="#FFCF71"/>
</svg>
