<svg width="56" height="56" viewBox="0 0 56 56" fill="none" xmlns="http://www.w3.org/2000/svg">
<path d="M50 30.9974C50 43.4913 40.2411 50 27.8111 50C15.3812 50 6 40.4373 6 27.9434C6 15.4496 17.4268 6 29.8568 6C42.2867 6 50 18.5036 50 30.9974Z" fill="#D9D9D9"/>
<circle cx="20.8716" cy="23.8494" r="1.6092" fill="#828282"/>
<circle cx="32.6724" cy="23.8494" r="1.6092" fill="#828282"/>
<path d="M37.5 32.7615C37.5 33.481 33.0743 34.0642 27.6149 34.0642C22.1556 34.0642 17.5 33.198 17.5 32.1252C17.5 31.0524 22.1556 31.4588 27.6149 31.4588C33.0743 31.4588 37.5 31.1523 37.5 32.7615Z" fill="#828282"/>
</svg>
