<svg width="33" height="32" viewBox="0 0 33 32" fill="none" xmlns="http://www.w3.org/2000/svg">
<path d="M26.02 17.2533C26.0733 16.8533 26.1 16.44 26.1 16C26.1 15.5733 26.0733 15.1466 26.0066 14.7466L28.7133 12.64C28.8299 12.5438 28.9096 12.4102 28.9388 12.2619C28.968 12.1136 28.9448 11.9598 28.8733 11.8266L26.3133 7.39996C26.2379 7.26604 26.1176 7.16312 25.9736 7.10943C25.8296 7.05574 25.6713 7.05475 25.5266 7.10662L22.34 8.38662C21.6733 7.87995 20.9666 7.45329 20.18 7.13329L19.7 3.74662C19.6763 3.594 19.5988 3.4549 19.4813 3.35459C19.3639 3.25428 19.2144 3.19942 19.06 3.19996H13.94C13.62 3.19996 13.3666 3.42662 13.3133 3.74662L12.8333 7.13329C12.0466 7.45329 11.3266 7.89329 10.6733 8.38662L7.48662 7.10662C7.19329 6.99995 6.85995 7.10662 6.69995 7.39996L4.15329 11.8266C3.99329 12.1066 4.04662 12.4533 4.31329 12.64L7.01995 14.7466C6.95329 15.1466 6.89995 15.5866 6.89995 16C6.89995 16.4133 6.92662 16.8533 6.99329 17.2533L4.28662 19.36C4.16998 19.4561 4.09029 19.5897 4.06112 19.738C4.03194 19.8863 4.05509 20.0401 4.12662 20.1733L6.68662 24.6C6.84662 24.8933 7.17995 24.9866 7.47329 24.8933L10.66 23.6133C11.3266 24.12 12.0333 24.5466 12.82 24.8666L13.3 28.2533C13.3666 28.5733 13.62 28.8 13.94 28.8H19.06C19.38 28.8 19.6466 28.5733 19.6866 28.2533L20.1666 24.8666C20.9533 24.5466 21.6733 24.12 22.3266 23.6133L25.5133 24.8933C25.8066 25 26.14 24.8933 26.3 24.6L28.86 20.1733C29.02 19.88 28.9533 19.5466 28.7 19.36L26.02 17.2533ZM16.5 20.8C13.86 20.8 11.7 18.64 11.7 16C11.7 13.36 13.86 11.2 16.5 11.2C19.14 11.2 21.3 13.36 21.3 16C21.3 18.64 19.14 20.8 16.5 20.8Z" fill="#343434"/>
</svg>
