<svg width="56" height="56" viewBox="0 0 56 56" fill="none" xmlns="http://www.w3.org/2000/svg">
<path d="M35 0.875C35 3.98125 32.6867 6.54883 29.6898 6.94531C29.4957 5.48516 28.8531 4.16719 27.9043 3.13633C28.9516 1.26602 30.9531 0 33.25 0H34.125C34.609 0 35 0.391016 35 0.875ZM21 2.625C21 2.14102 21.391 1.75 21.875 1.75H22.75C26.1324 1.75 28.875 4.49258 28.875 7.875V8.75V13.125C28.875 13.609 28.484 14 28 14C27.516 14 27.125 13.609 27.125 13.125V8.75C23.7426 8.75 21 6.00742 21 2.625Z" fill="#828282"/>
<path d="M50 36.9974C50 49.4913 40.2411 56 27.8111 56C15.3812 56 6 46.4373 6 33.9434C6 21.4496 17.4268 12 29.8568 12C42.2867 12 50 24.5036 50 36.9974Z" fill="#D9D9D9"/>
<path d="M36.0032 28.4276C36.0032 28.7369 34.3069 28.263 32.7427 28.263C29.581 28.3947 30.2067 28.3288 29.9103 28.0983C29.6662 27.9084 31.1784 27.2749 32.7427 27.2749C34.3069 27.2749 36.0032 28.1184 36.0032 28.4276Z" fill="#828282"/>
<path d="M17.8562 29.0809C17.8562 29.3887 19.7552 28.917 21.5065 28.917C25.0461 29.0481 24.3456 28.9825 24.6774 28.7531C24.9506 28.5641 23.2577 27.9336 21.5065 27.9336C19.7552 27.9336 17.8562 28.7731 17.8562 29.0809Z" fill="#828282"/>
<path d="M38.391 40.6637C40.3995 38.1048 37.5304 30.5684 28.443 30.5684C17.2483 30.5684 17.6434 36.111 17.9726 39.1279C19.8165 40.9871 20.7618 40.0209 26.0898 40.0209C31.4178 40.0209 35.8886 41.6811 38.391 40.6637Z" fill="#828282"/>
<path d="M32.3802 32.5775C32.3802 33.5562 31.4935 34.969 27.3904 34.969C24.2392 34.969 22.7305 33.8527 22.7305 32.874C22.7305 31.8953 24.7074 31.4248 27.3904 31.4248C30.0735 31.4248 32.3802 31.5988 32.3802 32.5775Z" fill="white"/>
<rect width="0.724556" height="4.35819" transform="matrix(0.991738 -0.12828 0.128272 0.991739 26.8154 31.0566)" fill="#828282"/>
<ellipse cx="17.5599" cy="29.5472" rx="0.559884" ry="0.559902" fill="#828282"/>
<ellipse cx="36.3983" cy="28.6258" rx="0.559884" ry="0.559902" fill="#828282"/>
</svg>
